<svg width="27" height="25" viewBox="0 0 27 25" fill="none" xmlns="http://www.w3.org/2000/svg">
<path d="M21.8661 10.2374C21.2871 7.9975 19.9494 6.0276 18.0809 4.66339C16.2123 3.29918 13.9286 2.62507 11.6187 2.75591C9.30889 2.88675 7.11586 3.81446 5.41333 5.38095C3.7108 6.94745 2.6041 9.05581 2.2818 11.3468C1.9595 13.6378 2.44154 15.9697 3.64579 17.9451C4.85003 19.9205 6.70198 21.4173 8.88607 22.1803C11.0702 22.9434 13.4513 22.9255 15.6237 22.1298C17.7961 21.3341 19.6254 19.8097 20.7999 17.8165L18.349 16.3724C17.5086 17.7986 16.1997 18.8893 14.6453 19.4587C13.0909 20.0281 11.3871 20.0408 9.82431 19.4948C8.26152 18.9488 6.9364 17.8779 6.07472 16.4644C5.21304 15.0509 4.86813 13.3824 5.09874 11.7431C5.32936 10.1038 6.12124 8.59522 7.33945 7.47434C8.55767 6.35347 10.1268 5.68967 11.7796 5.59604C13.4324 5.50242 15.0665 5.98477 16.4035 6.96091C17.7405 7.93704 18.6977 9.34657 19.1119 10.9493L21.8661 10.2374Z" fill="#EC4A42"/>
<path d="M14.1328 8.8418L20.9279 10.7979L22.884 4.0028" stroke="#EC4A42" stroke-width="2"/>
</svg>
