<svg width="36" height="36" viewBox="0 0 36 36" fill="none" xmlns="http://www.w3.org/2000/svg">
<path d="M8.12268 17.1742L18.0947 7.20218C20.9677 4.32913 25.626 4.32913 28.4991 7.20218C29.8937 8.59687 30.605 10.41 30.6469 12.237C30.6887 14.1756 29.9774 16.1282 28.4921 17.6135L15.9608 30.1448C14.9497 31.1559 13.6108 31.6441 12.2858 31.6162C11.0376 31.5813 9.7963 31.0932 8.84791 30.1448C6.88141 28.1783 6.88141 24.9984 8.84791 23.0319L21.428 10.4518C22.4112 9.46855 24.0012 9.46855 24.9844 10.4518C25.4586 10.926 25.7027 11.5466 25.7167 12.1742C25.7376 12.8367 25.4865 13.5062 24.9775 14.0152L15.2774 23.7153" fill="white"/>
<path d="M8.12268 17.1742L18.0947 7.20218C20.9677 4.32913 25.626 4.32913 28.4991 7.20218C29.8937 8.59687 30.605 10.41 30.6469 12.237C30.6887 14.1756 29.9774 16.1282 28.4921 17.6135L15.9608 30.1448C14.9497 31.1559 13.6108 31.6441 12.2858 31.6162C11.0376 31.5813 9.7963 31.0932 8.84791 30.1448C6.88141 28.1783 6.88141 24.9984 8.84791 23.0319L21.428 10.4518C22.4112 9.46855 24.0012 9.46855 24.9844 10.4518C25.4586 10.926 25.7027 11.5466 25.7167 12.1742C25.7376 12.8367 25.4865 13.5062 24.9775 14.0152L15.2774 23.7153" stroke="black" stroke-width="2" stroke-miterlimit="10" stroke-linecap="round"/>
</svg>
