<svg version="1.1" xmlns="http://www.w3.org/2000/svg" xmlns:xlink="http://www.w3.org/1999/xlink" width="0" height="0" class="hidden">

    <!-- stroke="#131313" -->
    <symbol id="phone" viewBox="0 0 25 24" xmlns="http://www.w3.org/2000/svg">
        <path d="M10.1267 13.8845C8.03008 11.7879 7.55054 9.6801 7.43902 8.84369C7.40556 8.60949 7.49478 8.3753 7.66206 8.20802L9.36834 6.51289C9.61369 6.26754 9.6583 5.87722 9.47986 5.57611L6.75874 1.3606C6.54685 1.02603 6.12306 0.903358 5.77735 1.08179L1.42801 3.13379C1.13805 3.26761 0.970772 3.56872 1.00423 3.88098C1.22727 6.0445 2.1752 11.3641 7.40556 16.5944C12.6359 21.8248 17.9555 22.7616 20.119 22.9958C20.4313 23.0292 20.7324 22.8619 20.8774 22.5831L22.9294 18.2338C23.1078 17.8881 22.9851 17.4643 22.6506 17.2524L18.4462 14.5424C18.1451 14.3529 17.7548 14.3975 17.5094 14.654L15.8143 16.3602C15.647 16.5275 15.4128 16.6056 15.1786 16.5721C14.331 16.4606 12.2233 15.9811 10.1267 13.8845Z" stroke-width="2" stroke-miterlimit="10" stroke-linecap="round" stroke-linejoin="round"/>
    </symbol>

    <!-- fill="#111111" -->
    <symbol width="85px" height="85px" id="deal" viewBox="0 0 86 86" xmlns="http://www.w3.org/2000/svg">
        <path d="M79.8366 32.3494C83.1145 30.7104 85.1518 27.4164 85.1518 23.7516V16.4814C85.1518 11.3768 81.1551 7.18774 76.1238 6.88558L72.8597 3.62134C70.5272 1.28647 67.421 0 64.1202 0H57.791C52.4301 0 48.0695 4.36071 48.0695 9.72176C48.0695 12.6907 49.3995 15.4582 51.7183 17.3124L54.0553 19.1803C53.5746 23.1862 53.5632 25.9331 53.5632 26.0933V27.4668H56.31V28.4236C56.31 30.8638 57.5232 33.1277 59.5513 34.4828C60.753 35.284 62.1516 35.7075 63.5914 35.7075H63.9645C64.1614 35.7075 64.3537 35.664 64.5505 35.6503V40.6244L61.9983 41.1349C61.3985 41.2539 60.8492 41.5767 60.4532 42.0414L58.8028 43.9665C57.0929 45.9603 55.708 48.1807 54.6436 50.5408L46.6961 58.4908V53.3129C46.6961 47.8396 44.3339 42.6366 40.2159 39.0335C36.7595 36.0051 32.321 34.3363 27.7224 34.3363H27.4683V32.9171C30.6546 32.6813 33.4244 30.699 34.6261 27.6957C35.3448 25.8987 35.7088 24.008 35.7088 22.0737V16.4814C35.7088 15.5109 35.5005 14.5906 35.1365 13.7528C37.2333 11.7705 38.4556 8.97322 38.4556 6.06379C38.4556 4.44541 37.8262 2.92088 36.6794 1.77633C35.5348 0.631788 34.0126 0 32.392 0H21.336C17.8384 0 14.5445 1.36887 11.9716 3.9441C9.63451 6.27897 8.24049 9.93693 8.24049 13.7345C8.24049 18.6515 11.1292 21.6113 12.3951 22.6734C12.5553 24.5482 13.3588 26.2902 14.7047 27.6362L15.1076 28.0367V34.3523C12.0037 34.4347 9.03479 35.4168 6.50083 37.2274C2.42866 40.1346 0 44.8547 0 49.8563V61.8054C0 66.4866 2.14024 70.6779 5.49366 73.4523V85.1541H38.4556V76.9134H42.1455C45.4486 76.9134 48.5502 75.6269 50.885 73.292L52.1898 71.9872V85.1541H85.1518V50.6186C85.1518 48.7393 84.7077 46.8599 83.8676 45.182C82.6979 42.8449 80.766 40.9129 78.4289 39.7431L76.909 38.9832V33.8121L79.8366 32.3494ZM53.435 15.1698C51.7709 13.8375 50.8164 11.8506 50.8164 9.72176C50.8164 5.87609 53.9455 2.74691 57.791 2.74691H64.1202C66.6885 2.74691 69.1011 3.74724 70.9186 5.56248L74.9702 9.61417H75.5379C79.3239 9.61417 82.4049 12.6953 82.4049 16.4814V23.7493C82.4049 26.3657 80.9491 28.7212 78.6074 29.8909L75.8675 31.2598C75.1991 30.4082 74.7184 29.4468 74.4712 28.4351C74.3361 27.8834 74.2446 27.3409 74.1988 26.8281C75.2357 26.0819 76.9113 24.4864 76.9113 21.9752C76.9113 18.9468 74.446 16.4814 71.4176 16.4814H71.2299C70.9598 15.5292 70.3967 14.6753 69.5498 13.9268C68.0298 12.5854 65.4501 10.9876 61.8037 10.9876C58.7685 10.9876 55.8202 12.4458 55.6966 12.5053L55.0946 12.8074L54.9618 13.4644C54.7878 14.3434 54.6345 15.1973 54.4994 16.0213L53.435 15.1698ZM65.0747 45.3239H63.1702L63.1748 43.7033L66.1872 43.1012L65.0747 45.3239ZM63.5685 61.0546L61.8472 57.9551L63.0237 48.0708H64.8229L66.7846 56.9021C65.8576 58.3878 64.784 59.7795 63.5685 61.0546ZM68.7486 53.0839L67.3683 46.8782L69.5978 42.4214L72.1409 41.9132L69.7649 50.2272C69.4857 51.2046 69.1355 52.1523 68.7486 53.0839ZM67.2974 35.1879L71.6877 34.3111L71.1475 31.6169L64.855 32.8759C64.5643 32.9331 64.2667 32.9629 63.9668 32.9629H63.5937C62.6964 32.9629 61.8243 32.6996 61.0781 32.2006C59.8145 31.3582 59.0592 29.9458 59.0592 28.4259V24.7221H56.3535C56.4382 22.8016 56.6992 19.0567 57.5255 14.7005C58.4022 14.3388 60.1304 13.7345 61.8037 13.7345C64.594 13.7345 66.5672 14.9592 67.7346 15.987C68.3824 16.5593 68.6708 17.1338 68.6708 17.8549V19.2283H71.4176C72.9329 19.2283 74.1644 20.4599 74.1644 21.9752C74.1644 23.818 72.189 24.8618 72.1776 24.8664L71.4176 25.2464V26.0956C71.4176 27.0341 71.5458 28.0413 71.8022 29.0874C72.1982 30.7081 73.0085 32.2258 74.1644 33.51V38.7039L67.2974 40.0774V35.1879ZM60.4303 46.3426V46.6173L59.5673 53.8577L57.7109 50.5179C58.4709 49.0414 59.3796 47.6451 60.4303 46.3426ZM43.9493 53.3106V61.2354L43.2145 61.9702C42.4477 62.737 41.3833 63.1765 40.2983 63.1765H38.4556V54.9358H35.7088V63.1765H34.3423C34.34 63.1765 34.34 63.1765 34.3354 63.1765C34.3331 63.1765 34.3331 63.1765 34.3331 63.1765H24.7192V59.3286L33.4495 38.127C35.251 38.8069 36.9334 39.8072 38.4053 41.096C41.9304 44.1794 43.9493 48.6317 43.9493 53.3106ZM38.4556 70.1949C38.4579 71.2502 38.0459 72.2482 37.2928 73.0013C36.5443 73.7498 35.5577 74.1619 34.5094 74.1665H32.962V74.1687H30.2151V65.9257H34.3423C36.6084 65.9303 38.4511 67.7868 38.4556 70.1949ZM25.2457 37.0832L23.8723 39.8301H21.4505L20.077 37.0832H25.2457ZM27.0059 46.5623L26.1475 41.4188L28.3015 37.1107C29.1393 37.1404 29.9702 37.2251 30.7851 37.3831L27.0059 46.5623ZM17.0052 37.0832L19.1729 41.4188L18.4885 45.5116L14.5582 37.1565C14.881 37.1313 15.1968 37.0832 15.5196 37.0832H17.0052ZM21.7641 42.577H23.5564L25.0236 51.3786L23.2634 55.6546L20.5463 49.8792L21.7641 42.577ZM32.962 22.0714C32.962 23.6554 32.6644 25.2029 32.0738 26.6747C31.2132 28.8265 29.1599 30.2182 26.8411 30.2182C25.7241 30.2182 24.6437 29.8909 23.7143 29.2706L21.3589 27.7025L19.839 29.9871L22.1921 31.5574C22.9727 32.077 23.8288 32.441 24.7192 32.6744V34.3363H17.8521V26.9014L16.6458 25.695C15.6546 24.6993 15.1076 23.3785 15.1076 21.9752C15.1076 21.2198 15.7233 20.6018 16.481 20.6018H17.8544V16.4814C17.8544 14.2084 19.7016 12.3611 21.9746 12.3611H28.8417C31.1147 12.3611 32.962 14.2084 32.962 16.4814V22.0714ZM13.1459 19.5603C12.157 18.4066 10.9873 16.4654 10.9873 13.7345C10.9873 10.6511 12.0815 7.71652 13.9997 5.79597C15.9682 3.82964 18.5732 2.74691 21.336 2.74691H32.392C33.2641 2.74691 34.1202 3.10171 34.736 3.71748C35.354 4.33553 35.7065 5.18936 35.7065 6.0615C35.7065 8.08964 34.8962 10.0308 33.5113 11.4775C32.2867 10.3307 30.6501 9.61417 28.8417 9.61417H21.9746C18.1886 9.61417 15.1076 12.6953 15.1076 16.4814V18.0907C14.3133 18.3722 13.6311 18.8896 13.1459 19.5603ZM2.74683 61.8054V49.8563C2.74683 45.7383 4.74515 41.8537 8.09628 39.4616C9.22477 38.6558 10.4586 38.0561 11.7587 37.6555L21.9746 59.3652V63.1788H13.7342V54.9381H10.9873V63.1788C10.9873 64.6942 12.2165 65.9257 13.725 65.9257H27.4683V74.1687L15.1076 74.1665C8.29314 74.1665 2.74683 68.6223 2.74683 61.8054ZM35.7088 82.4072H8.24049V75.2446C10.3029 76.3045 12.6331 76.9134 15.1076 76.9134L34.4865 76.9156H34.4888C34.4956 76.9156 34.5025 76.9134 34.5094 76.9134H35.7088V82.4072ZM48.944 71.3509C47.1288 73.1661 44.7138 74.1665 42.1455 74.1665H39.8703C40.7241 73.0105 41.2048 71.6187 41.2025 70.0621C41.2002 68.5055 40.66 67.0817 39.7856 65.9257H40.2983C42.1066 65.9257 43.8783 65.1932 45.1579 63.9136L52.7826 56.2887C52.405 58.1085 52.1898 59.965 52.1898 61.8443V68.1049L48.944 71.3509ZM54.9366 61.8443C54.9366 59.047 55.4265 56.2978 56.3352 53.6928L61.5038 62.9957C61.3161 63.1559 61.1399 63.323 60.9453 63.4787L60.4303 63.893V82.4072H54.9366V61.8443ZM77.202 42.197C79.0126 43.1012 80.5073 44.5983 81.4115 46.4067C82.0616 47.7069 82.4049 49.1627 82.4049 50.6163V82.4072H74.1644V60.4319H71.4176V82.4072H63.1771V65.2024C67.6247 61.478 70.8087 56.5725 72.4065 50.9803L75.1716 41.3043L75.3456 41.27L77.202 42.197Z"/>
    </symbol>

    <!-- stroke="black" -->
    <symbol id="loop" viewBox="0 0 22 24" fill="none" xmlns="http://www.w3.org/2000/svg">
        <g fill="white">
            <path d="M1.14062 10.7329C1.14062 5.45378 5.35135 1.16309 10.532 1.16309C15.7127 1.16309 19.9234 5.45378 19.9234 10.7329C19.9234 13.8375 18.4742 16.5933 16.2262 18.3375C14.6401 19.5701 12.6659 20.3026 10.532 20.3026C5.35135 20.3026 1.14062 16.0236 1.14062 10.7329Z" stroke-width="2" stroke-miterlimit="10"/>
            <path d="M21.0203 23.174L15.9766 17.4414" stroke-width="2" stroke-miterlimit="10"/>
        </g>
    </symbol>

    <!-- fill="black" -->
    <symbol id="car" width="107px" height="69px" viewBox="0 0 107 69" fill="black" xmlns="http://www.w3.org/2000/svg">
        <path d="M104.993 28.8241L94.0723 26.6156L82.9608 7.78195C82.6808 7.30338 82.1684 7.01208 81.6143 7.01208H76.282V1.56055C76.282 0.698532 75.582 0 74.7181 0H69.2666C68.4027 0 67.7026 0.698532 67.7026 1.56055V7.01208H63.6125V1.56055C63.6125 0.698532 62.9125 0 62.0486 0H1.56395C0.700054 0 0 0.698532 0 1.56055V59.9757C0 60.8377 0.700054 61.5362 1.56395 61.5362H10.9536C13.4112 65.6234 17.838 68.1233 22.6132 68.1233C27.3885 68.1233 31.8152 65.6234 34.2728 61.5362H71.9744C74.4321 65.6234 78.8588 68.1233 83.6341 68.1233C88.4093 68.1233 92.836 65.6234 95.2937 61.5362H104.683C105.547 61.5362 106.247 60.8377 106.247 59.9757V30.3549C106.247 29.6148 105.723 28.9727 104.993 28.8241ZM103.116 40.2771H98.8178V37.3878H103.119L103.116 40.2771ZM90.3367 26.4461H70.8305V16.7767H84.6409L90.3367 26.4461ZM70.8305 3.11813H73.1541V7.0091H70.8305V3.11813ZM80.7177 10.1272L82.797 13.6526H69.2636C68.3997 13.6526 67.6996 14.3511 67.6996 15.2131V28.0067C67.6996 28.8687 68.3997 29.5672 69.2636 29.5672H92.9195L103.116 31.6301V34.2667H97.2508C96.3869 34.2667 95.6869 34.9653 95.6869 35.8273V41.8376C95.6869 42.6996 96.3869 43.3982 97.2508 43.3982H103.116V47.5418H95.3205C92.8688 43.4279 88.4272 40.9072 83.6311 40.9072C78.835 40.9072 74.3933 43.4279 71.9417 47.5418H63.6066V10.1332L80.7177 10.1272ZM60.4816 3.11813V47.5418H34.2967C31.848 43.4279 27.4064 40.9072 22.6102 40.9072C17.8141 40.9072 13.3725 43.4279 10.9208 47.5418H3.1279V3.11813H60.4816ZM3.1279 58.4151V50.6629H9.5386C8.78195 53.1925 8.78493 55.8885 9.55052 58.4151H3.1279ZM22.6102 65.0022C18.3593 65.0022 14.5283 62.4458 12.9018 58.5281C11.2753 54.6104 12.175 50.0981 15.1807 47.0989C18.1865 44.0997 22.7085 43.202 26.6348 44.8279C30.5611 46.4509 33.123 50.2765 33.123 54.5182C33.117 60.3086 28.4162 65.0022 22.6162 65.0081L22.6102 65.0022ZM35.6729 58.4151C36.4385 55.8885 36.4445 53.1925 35.6849 50.6629H70.5624C69.8058 53.1925 69.8087 55.8885 70.5743 58.4151H35.6729ZM83.6341 65.0051C79.3831 65.0051 75.5522 62.4518 73.9257 58.5311C72.2991 54.6133 73.1958 50.1011 76.2016 47.1019C79.2073 44.1027 83.7264 43.205 87.6556 44.825C91.5819 46.4479 94.1438 50.2706 94.1468 54.5123C94.1378 60.3056 89.4371 64.9992 83.6341 65.0051ZM103.116 58.4181H96.6908C97.4564 55.8915 97.4594 53.1955 96.7027 50.6659H103.116V58.4181Z"/>
        <path d="M22.6126 48.4688C20.1609 48.4688 17.9535 49.9431 17.0151 52.1992C16.0797 54.4583 16.5951 57.0563 18.3288 58.7862C20.0596 60.5132 22.6662 61.0305 24.9302 60.0971C27.1942 59.1637 28.6718 56.9582 28.6718 54.5148C28.6658 51.1767 25.955 48.4717 22.6126 48.4688ZM22.6126 57.4367C21.4269 57.4367 20.3605 56.7233 19.9047 55.6324C19.4519 54.5386 19.7021 53.2812 20.5422 52.4459C21.3793 51.6107 22.6394 51.361 23.7356 51.8128C24.8289 52.2646 25.5439 53.3317 25.5439 54.5148C25.5379 56.1288 24.2301 57.4367 22.6126 57.4367Z"/>
        <path d="M83.6335 48.4688C81.1848 48.4688 78.9745 49.9401 78.0361 52.1992C77.0977 54.4583 77.6161 57.0563 79.3468 58.7862C81.0806 60.5162 83.6842 61.0334 85.9482 60.0971C88.2122 59.1637 89.6868 56.9582 89.6868 54.5148C89.6868 51.1797 86.9789 48.4747 83.6335 48.4688ZM83.6335 57.4367C82.4479 57.4367 81.3814 56.7263 80.9257 55.6324C80.4729 54.5386 80.7231 53.2812 81.5602 52.4459C82.3973 51.6107 83.6574 51.358 84.7536 51.8128C85.8499 52.2646 86.5618 53.3317 86.5618 54.5148C86.5589 56.1288 85.2511 57.4338 83.6335 57.4367Z"/>
        <path d="M69.2671 35.6221H72.8478C74.933 35.6221 74.933 32.501 72.8478 32.501H69.2671C67.1818 32.501 67.1818 35.6221 69.2671 35.6221Z"/>
    </symbol>

    <!-- fill="#111111" -->
    <symbol id="trophy" viewBox="0 0 70 86" fill="#111111" xmlns="http://www.w3.org/2000/svg">
        <path d="M38.2884 75.1748H31.3854C30.4697 75.1748 29.7266 75.9199 29.7266 76.838C29.7266 77.756 30.4697 78.5011 31.3854 78.5011H38.2884C39.2041 78.5011 39.9473 77.756 39.9473 76.838C39.9473 75.9199 39.2063 75.1748 38.2884 75.1748Z"/>
        <path d="M68.0127 13.3053H58.0596V9.69293C59.9905 9.00549 61.3773 7.15826 61.3773 4.9895C61.3773 2.23751 59.1456 0 56.4007 0H13.2708C10.5259 0 8.29423 2.23751 8.29423 4.9895C8.29423 7.15826 9.68102 9.00549 11.6119 9.69293V13.3053H1.65885C0.743163 13.3053 0 14.0504 0 14.9685V26.6106C0 33.9485 5.95194 39.916 13.2708 39.916H14.673C14.9915 40.4726 15.3322 41.0203 15.6993 41.5547C18.0482 44.972 21.2177 47.673 24.9181 49.4359C24.896 49.6289 24.8827 49.8218 24.8827 50.0191C24.8827 52.3498 26.484 54.3123 28.6427 54.8578C26.6499 61.5172 23.1066 68.5224 18.9108 68.5224H14.9296C14.0936 68.5224 13.388 69.1478 13.284 69.9793L11.6252 83.2847C11.5655 83.757 11.7114 84.2338 12.0277 84.5908C12.3418 84.9478 12.7952 85.1541 13.2708 85.1541H56.4007C56.8763 85.1541 57.3297 84.9501 57.6438 84.5908C57.9601 84.2338 58.106 83.757 58.0463 83.2847L56.3875 69.9793C56.2835 69.1478 55.578 68.5224 54.7419 68.5224H50.7607C48.2215 68.5224 46.0761 65.8503 44.7225 63.6061C42.984 60.7233 41.7697 57.3282 41.0288 54.8578C43.1853 54.3123 44.7888 52.3498 44.7888 50.0191C44.7888 49.8218 44.7756 49.6289 44.7534 49.4359C48.456 47.673 51.6255 44.9698 53.9722 41.5525C54.3394 41.0203 54.68 40.4726 54.9985 39.916H56.4007C63.7196 39.916 69.6715 33.9485 69.6715 26.6106V14.9685C69.6715 14.0504 68.9283 13.3053 68.0127 13.3053ZM3.31769 26.6106V16.6317H11.6119V28.398C11.6119 31.2232 12.1228 33.9862 13.1049 36.5852C7.69262 36.4965 3.31769 32.057 3.31769 26.6106ZM54.5207 81.8277H15.1508L16.396 71.8487H53.2799L54.5207 81.8277ZM44.2204 68.5224H25.4489C26.2562 67.6354 27.0325 66.5754 27.7801 65.3402C29.9012 61.8298 31.2925 57.6919 32.0533 55.0086H37.6182C38.379 57.6941 39.7703 61.821 41.8847 65.3269C42.6323 66.5687 43.4131 67.6332 44.2204 68.5224ZM39.8123 51.6823H29.8592C28.9435 51.6823 28.2004 50.9372 28.2004 50.0191C28.2004 49.1033 28.9435 48.356 29.8592 48.356H39.8123C40.728 48.356 41.4711 49.1033 41.4711 50.0191C41.4711 50.9372 40.728 51.6823 39.8123 51.6823ZM43.287 46.4533C42.389 45.5729 41.1637 45.0296 39.8123 45.0296H29.8592C28.5078 45.0296 27.2825 45.5729 26.3845 46.4533C19.3908 43.1514 14.9296 36.1838 14.9296 28.398V9.97899H27.371C28.2866 9.97899 29.0298 9.23389 29.0298 8.31583C29.0298 7.39776 28.2866 6.65266 27.371 6.65266H13.2708C12.3551 6.65266 11.6119 5.90756 11.6119 4.9895C11.6119 4.07143 12.3551 3.32633 13.2708 3.32633H56.4007C57.3164 3.32633 58.0596 4.07143 58.0596 4.9895C58.0596 5.90756 57.3164 6.65266 56.4007 6.65266H42.3006C41.3849 6.65266 40.6417 7.39776 40.6417 8.31583C40.6417 9.23389 41.3849 9.97899 42.3006 9.97899H54.7419V28.398C54.7419 36.1838 50.2807 43.1514 43.287 46.4533ZM66.3538 26.6106C66.3538 32.057 61.9789 36.4965 56.5666 36.5852C57.5487 33.9862 58.0596 31.2232 58.0596 28.398V16.6317H66.3538V26.6106Z"/>
        <path d="M43.3112 21.6878L39.5909 21.027L37.7441 17.6186C37.4344 17.0487 36.9677 16.583 36.3949 16.277C35.6141 15.8601 34.7183 15.7736 33.8712 16.0308C33.0241 16.2881 32.3296 16.8624 31.9138 17.6452L30.1377 20.9893L26.4064 21.6834C25.7385 21.792 25.1258 22.0981 24.637 22.5704C24 23.1847 23.6395 24.0118 23.6218 24.8988C23.6041 25.7858 23.9336 26.6263 24.5463 27.2672L27.1717 29.997L26.6895 33.6781C26.559 34.3789 26.6564 35.0885 26.9704 35.7338C27.3575 36.5321 28.0321 37.1331 28.8704 37.4214C29.2242 37.5433 29.5914 37.6054 29.9563 37.6054C30.4518 37.6054 30.945 37.4923 31.4051 37.2683L34.8002 35.6118L38.2948 37.2816C38.8787 37.5611 39.529 37.6608 40.177 37.5721C41.0529 37.4502 41.8315 36.9934 42.3645 36.286C42.8998 35.5786 43.1276 34.7048 43.0037 33.8223L42.4795 30.0679L45.0452 27.3559C45.5517 26.8636 45.8835 26.2382 46.0051 25.5375C46.317 23.728 45.1071 22.0027 43.3112 21.6878ZM42.6631 25.0319L39.5201 28.3582C39.1707 28.7263 39.0114 29.2319 39.08 29.7331L39.7192 34.2769L35.5013 32.2633C35.0457 32.046 34.5171 32.0482 34.0614 32.27L29.9497 34.2791C29.9586 34.2392 29.9652 34.1992 29.9696 34.1593L30.5624 29.6355C30.6287 29.1321 30.4628 28.6288 30.1134 28.2651L26.9328 24.9698C26.9505 24.9654 26.9704 24.9631 26.9881 24.9609L31.5267 24.1138C32.0244 24.0207 32.4512 23.708 32.6879 23.2601L34.8311 19.2152L37.0584 23.3221C37.2995 23.7657 37.7286 24.0761 38.2262 24.1648L42.7361 24.9631C42.7118 24.9831 42.6874 25.0075 42.6631 25.0319Z"/>
        <path d="M34.8346 9.97867C35.7503 9.97867 36.4935 9.23358 36.4935 8.31551C36.4935 7.39744 35.7503 6.65234 34.8346 6.65234C33.9189 6.65234 33.1758 7.39744 33.1758 8.31551C33.1758 9.23358 33.9189 9.97867 34.8346 9.97867Z"/>
    </symbol>

    <!-- stroke="white" -->
    <symbol id="brief" viewBox="0 0 14 13" xmlns="http://www.w3.org/2000/svg">
        <path d="M1.22266 6.44444L4.77821 10L12.7782 2" stroke-width="3"/>
    </symbol>

    <!-- stroke="black" -->
    <symbol id="arrow-down" viewBox="0 0 11 7" xmlns="http://www.w3.org/2000/svg">
        <path d="M1 1L5.5 5L10 1" stroke-width="1.7"/>
    </symbol>

    <!-- stroke="#131313" -->
    <symbol id="arrow" viewBox="0 0 24 24" xmlns="http://www.w3.org/2000/svg">
        <path d="M1 10.326L23 1L13.674 23L11.7182 12.2818L1 10.326Z" stroke-width="2" stroke-miterlimit="10" stroke-linecap="round" stroke-linejoin="round"/>
    </symbol>

    <!-- fill="black" -->
    <!-- stroke: "black" -->
    <symbol id="client" viewBox="0 0 71 87" xmlns="http://www.w3.org/2000/svg">
        <mask id="path-1-outside-1" maskUnits="userSpaceOnUse" x="0" y="0" width="71" height="87" fill="black">
            <rect fill="white" width="71" height="87"/>
            <path d="M58.0419 55.4875C58.2199 54.7358 58.1176 53.9286 57.7261 53.2345C57.3991 52.6535 56.9031 52.1989 56.2914 51.9195L50.7329 49.3892C49.9855 49.0477 49.127 49.0455 48.3774 49.3782C47.6278 49.713 47.0584 50.3517 46.8137 51.1345L46.638 51.6999L45.0854 50.926C44.5294 50.6488 44.1824 50.0922 44.1824 49.4713V43.4484C47.7123 41.5968 50.2881 38.1751 50.9709 34.1192C54.1472 33.7466 56.6206 31.0456 56.6206 27.7792C56.6206 26.6416 56.3203 25.5749 55.7954 24.6502C55.7998 24.6036 55.8043 24.5571 55.8043 24.5083V4.74988C55.8043 2.68312 54.2295 1 52.2921 1H23.1873C22.1508 1 21.181 1.43908 20.4559 2.23961C19.7686 3.00245 19.3904 4.007 19.3904 5.06699C19.3904 5.9274 18.8143 6.62815 18.107 6.62815H17.2062C15.1131 6.62815 13.4093 8.4532 13.4093 10.6951V15.505C13.4093 16.1991 13.9721 16.7579 14.666 16.7579C15.36 16.7579 15.9228 16.1969 15.9228 15.505V10.6951C15.9228 9.83473 16.4966 9.13399 17.204 9.13399H18.1048C20.2001 9.13399 21.9017 7.30894 21.9017 5.06699C21.9017 4.6257 22.0529 4.21545 22.322 3.9183C22.46 3.76529 22.758 3.50584 23.1873 3.50584H52.2921C52.8326 3.50584 53.2908 4.07575 53.2908 4.74988V22.1799C52.6258 21.8162 51.8895 21.5656 51.1088 21.4592C50.962 20.9292 50.4771 20.5366 49.8966 20.5366C49.8476 20.5366 49.4673 20.53 49.3227 20.561C38.7662 22.7542 30.563 14.2011 28.2987 11.5267C27.8583 11.0078 27.1799 10.7949 26.5282 10.9679C25.8676 11.1431 25.3804 11.6709 25.2559 12.345C23.7901 20.2595 20.0377 20.1841 20.0266 20.1841C19.3326 20.1841 18.7699 20.7451 18.7699 21.437V21.4858C17.7111 21.6654 16.7391 22.1067 15.9228 22.7387V21.1864C15.9228 20.4945 15.36 19.9335 14.666 19.9335C13.9721 19.9335 13.4093 20.4945 13.4093 21.1864V28.2183C13.4093 28.3868 13.4449 28.5487 13.505 28.695C13.9098 31.4936 16.1407 33.7089 18.95 34.0992C19.6329 38.1884 22.2397 41.6345 25.8097 43.4795V49.4669C25.8097 50.0878 25.4627 50.6466 24.9067 50.9238L24.7977 50.977C24.5285 50.2674 23.9903 49.6864 23.2896 49.3759C22.54 49.0433 21.6837 49.0477 20.9385 49.387L15.3756 51.9173C14.7661 52.1967 14.2723 52.649 13.9476 53.2278C13.5895 53.8598 13.4738 54.5828 13.585 55.2724C10.2308 56.3701 7.21912 58.4435 4.99705 61.2155C2.4191 64.4309 1 68.4691 1 72.5893V82.7568C1 84.6306 2.52809 86.1541 4.40761 86.1541H57.2901C57.9841 86.1541 58.5468 85.593 58.5468 84.9012C58.5468 84.2071 57.9841 83.6482 57.2901 83.6482H50.2725L58.5624 66.766C59.1874 65.4931 58.876 63.9541 57.8039 63.0228L55.2126 60.7764C54.9657 60.5635 54.9235 60.202 55.1148 59.9381L56.7429 57.6918C63.1111 59.8206 67.4885 65.8258 67.4885 72.5893V82.7568C67.4885 83.2469 67.0881 83.6482 66.5943 83.6482H62.9865C62.2925 83.6482 61.7298 84.2093 61.7298 84.9012C61.7298 85.593 62.2925 86.1541 62.9865 86.1541H66.5943C68.4738 86.1541 70.0019 84.6306 70.0019 82.7568V72.5893C70.0042 64.9254 65.1552 58.0976 58.0419 55.4875ZM35.0116 83.6482L28.0652 61.4195C30.3762 62.3021 32.6783 62.7456 34.9627 62.7456C37.9766 62.7456 40.9616 61.9783 43.9043 60.4437L36.6576 83.6482H35.0116ZM54.1072 27.7814C54.1072 29.5976 52.8482 31.1277 51.1533 31.5468V24.0182C52.8482 24.4351 54.1072 25.963 54.1072 27.7814ZM15.9495 27.7814C15.9495 26.0184 17.1439 24.5216 18.7676 24.0537V31.5091C17.1439 31.0434 15.9495 29.5488 15.9495 27.7814ZM21.2833 31.9704V22.5546C22.9471 22.1466 25.8898 20.5278 27.409 14.2987C30.4118 17.5053 37.1425 23.4261 45.8662 23.4261C46.7692 23.4261 47.6945 23.3618 48.6376 23.2243V31.9704C48.6376 37.736 43.9333 42.4283 38.1501 42.4283H31.7731C25.9899 42.4283 21.2833 37.736 21.2833 31.9704ZM26.0277 53.168C27.4424 52.4628 28.321 51.0458 28.321 49.4691V44.4641C29.422 44.7656 30.5786 44.932 31.7731 44.932H38.1501C39.369 44.932 40.5501 44.7612 41.6689 44.4463V49.4713C41.6689 51.048 42.5475 52.465 43.9622 53.168L45.8817 54.1259L45.0298 56.8535C39.1177 60.8606 33.2366 61.3175 27.0776 58.2484L25.5651 53.4008L26.0277 53.168ZM16.1385 54.4586C16.203 54.3433 16.2987 54.2568 16.421 54.2013L21.9817 51.6711C22.0974 51.6179 22.1997 51.6401 22.2642 51.6689C22.3176 51.6933 22.411 51.7509 22.4533 51.8818L32.3803 83.6504H24.1949L15.3645 65.6683C15.2399 65.4133 15.3022 65.1028 15.5157 64.9188L18.107 62.6724C19.3415 61.6035 19.5484 59.7984 18.5919 58.4746L16.1719 55.1394C15.9984 54.8976 16.0407 54.6315 16.1385 54.4586ZM3.51345 82.7568V72.5893C3.51345 65.5574 8.1155 59.4769 14.8017 57.521L16.5522 59.9359C16.7435 60.202 16.7035 60.5613 16.4566 60.7764L13.8653 63.025C12.7954 63.9541 12.484 65.4909 13.1068 66.766L21.3967 83.6482H4.40761C3.91382 83.6482 3.51345 83.2491 3.51345 82.7568ZM56.1535 64.9166C56.367 65.1028 56.4293 65.4089 56.3048 65.6639L47.4743 83.6482H39.2912L48.651 53.6913L49.2159 51.8796C49.2538 51.7576 49.3383 51.6977 49.405 51.6689C49.4695 51.6401 49.5718 51.6179 49.6897 51.6689L55.246 54.1991C55.4017 54.2701 55.4862 54.381 55.5329 54.4608C55.6286 54.6293 55.6686 54.8954 55.4951 55.1349L53.0751 58.4701C52.1186 59.794 52.3277 61.5991 53.5622 62.668L56.1535 64.9166Z"/>
        </mask>
        <path d="M58.0419 55.4875C58.2199 54.7358 58.1176 53.9286 57.7261 53.2345C57.3991 52.6535 56.9031 52.1989 56.2914 51.9195L50.7329 49.3892C49.9855 49.0477 49.127 49.0455 48.3774 49.3782C47.6278 49.713 47.0584 50.3517 46.8137 51.1345L46.638 51.6999L45.0854 50.926C44.5294 50.6488 44.1824 50.0922 44.1824 49.4713V43.4484C47.7123 41.5968 50.2881 38.1751 50.9709 34.1192C54.1472 33.7466 56.6206 31.0456 56.6206 27.7792C56.6206 26.6416 56.3203 25.5749 55.7954 24.6502C55.7998 24.6036 55.8043 24.5571 55.8043 24.5083V4.74988C55.8043 2.68312 54.2295 1 52.2921 1H23.1873C22.1508 1 21.181 1.43908 20.4559 2.23961C19.7686 3.00245 19.3904 4.007 19.3904 5.06699C19.3904 5.9274 18.8143 6.62815 18.107 6.62815H17.2062C15.1131 6.62815 13.4093 8.4532 13.4093 10.6951V15.505C13.4093 16.1991 13.9721 16.7579 14.666 16.7579C15.36 16.7579 15.9228 16.1969 15.9228 15.505V10.6951C15.9228 9.83473 16.4966 9.13399 17.204 9.13399H18.1048C20.2001 9.13399 21.9017 7.30894 21.9017 5.06699C21.9017 4.6257 22.0529 4.21545 22.322 3.9183C22.46 3.76529 22.758 3.50584 23.1873 3.50584H52.2921C52.8326 3.50584 53.2908 4.07575 53.2908 4.74988V22.1799C52.6258 21.8162 51.8895 21.5656 51.1088 21.4592C50.962 20.9292 50.4771 20.5366 49.8966 20.5366C49.8476 20.5366 49.4673 20.53 49.3227 20.561C38.7662 22.7542 30.563 14.2011 28.2987 11.5267C27.8583 11.0078 27.1799 10.7949 26.5282 10.9679C25.8676 11.1431 25.3804 11.6709 25.2559 12.345C23.7901 20.2595 20.0377 20.1841 20.0266 20.1841C19.3326 20.1841 18.7699 20.7451 18.7699 21.437V21.4858C17.7111 21.6654 16.7391 22.1067 15.9228 22.7387V21.1864C15.9228 20.4945 15.36 19.9335 14.666 19.9335C13.9721 19.9335 13.4093 20.4945 13.4093 21.1864V28.2183C13.4093 28.3868 13.4449 28.5487 13.505 28.695C13.9098 31.4936 16.1407 33.7089 18.95 34.0992C19.6329 38.1884 22.2397 41.6345 25.8097 43.4795V49.4669C25.8097 50.0878 25.4627 50.6466 24.9067 50.9238L24.7977 50.977C24.5285 50.2674 23.9903 49.6864 23.2896 49.3759C22.54 49.0433 21.6837 49.0477 20.9385 49.387L15.3756 51.9173C14.7661 52.1967 14.2723 52.649 13.9476 53.2278C13.5895 53.8598 13.4738 54.5828 13.585 55.2724C10.2308 56.3701 7.21912 58.4435 4.99705 61.2155C2.4191 64.4309 1 68.4691 1 72.5893V82.7568C1 84.6306 2.52809 86.1541 4.40761 86.1541H57.2901C57.9841 86.1541 58.5468 85.593 58.5468 84.9012C58.5468 84.2071 57.9841 83.6482 57.2901 83.6482H50.2725L58.5624 66.766C59.1874 65.4931 58.876 63.9541 57.8039 63.0228L55.2126 60.7764C54.9657 60.5635 54.9235 60.202 55.1148 59.9381L56.7429 57.6918C63.1111 59.8206 67.4885 65.8258 67.4885 72.5893V82.7568C67.4885 83.2469 67.0881 83.6482 66.5943 83.6482H62.9865C62.2925 83.6482 61.7298 84.2093 61.7298 84.9012C61.7298 85.593 62.2925 86.1541 62.9865 86.1541H66.5943C68.4738 86.1541 70.0019 84.6306 70.0019 82.7568V72.5893C70.0042 64.9254 65.1552 58.0976 58.0419 55.4875ZM35.0116 83.6482L28.0652 61.4195C30.3762 62.3021 32.6783 62.7456 34.9627 62.7456C37.9766 62.7456 40.9616 61.9783 43.9043 60.4437L36.6576 83.6482H35.0116ZM54.1072 27.7814C54.1072 29.5976 52.8482 31.1277 51.1533 31.5468V24.0182C52.8482 24.4351 54.1072 25.963 54.1072 27.7814ZM15.9495 27.7814C15.9495 26.0184 17.1439 24.5216 18.7676 24.0537V31.5091C17.1439 31.0434 15.9495 29.5488 15.9495 27.7814ZM21.2833 31.9704V22.5546C22.9471 22.1466 25.8898 20.5278 27.409 14.2987C30.4118 17.5053 37.1425 23.4261 45.8662 23.4261C46.7692 23.4261 47.6945 23.3618 48.6376 23.2243V31.9704C48.6376 37.736 43.9333 42.4283 38.1501 42.4283H31.7731C25.9899 42.4283 21.2833 37.736 21.2833 31.9704ZM26.0277 53.168C27.4424 52.4628 28.321 51.0458 28.321 49.4691V44.4641C29.422 44.7656 30.5786 44.932 31.7731 44.932H38.1501C39.369 44.932 40.5501 44.7612 41.6689 44.4463V49.4713C41.6689 51.048 42.5475 52.465 43.9622 53.168L45.8817 54.1259L45.0298 56.8535C39.1177 60.8606 33.2366 61.3175 27.0776 58.2484L25.5651 53.4008L26.0277 53.168ZM16.1385 54.4586C16.203 54.3433 16.2987 54.2568 16.421 54.2013L21.9817 51.6711C22.0974 51.6179 22.1997 51.6401 22.2642 51.6689C22.3176 51.6933 22.411 51.7509 22.4533 51.8818L32.3803 83.6504H24.1949L15.3645 65.6683C15.2399 65.4133 15.3022 65.1028 15.5157 64.9188L18.107 62.6724C19.3415 61.6035 19.5484 59.7984 18.5919 58.4746L16.1719 55.1394C15.9984 54.8976 16.0407 54.6315 16.1385 54.4586ZM3.51345 82.7568V72.5893C3.51345 65.5574 8.1155 59.4769 14.8017 57.521L16.5522 59.9359C16.7435 60.202 16.7035 60.5613 16.4566 60.7764L13.8653 63.025C12.7954 63.9541 12.484 65.4909 13.1068 66.766L21.3967 83.6482H4.40761C3.91382 83.6482 3.51345 83.2491 3.51345 82.7568ZM56.1535 64.9166C56.367 65.1028 56.4293 65.4089 56.3048 65.6639L47.4743 83.6482H39.2912L48.651 53.6913L49.2159 51.8796C49.2538 51.7576 49.3383 51.6977 49.405 51.6689C49.4695 51.6401 49.5718 51.6179 49.6897 51.6689L55.246 54.1991C55.4017 54.2701 55.4862 54.381 55.5329 54.4608C55.6286 54.6293 55.6686 54.8954 55.4951 55.1349L53.0751 58.4701C52.1186 59.794 52.3277 61.5991 53.5622 62.668L56.1535 64.9166Z" fill="black"/>
        <path d="M58.0419 55.4875C58.2199 54.7358 58.1176 53.9286 57.7261 53.2345C57.3991 52.6535 56.9031 52.1989 56.2914 51.9195L50.7329 49.3892C49.9855 49.0477 49.127 49.0455 48.3774 49.3782C47.6278 49.713 47.0584 50.3517 46.8137 51.1345L46.638 51.6999L45.0854 50.926C44.5294 50.6488 44.1824 50.0922 44.1824 49.4713V43.4484C47.7123 41.5968 50.2881 38.1751 50.9709 34.1192C54.1472 33.7466 56.6206 31.0456 56.6206 27.7792C56.6206 26.6416 56.3203 25.5749 55.7954 24.6502C55.7998 24.6036 55.8043 24.5571 55.8043 24.5083V4.74988C55.8043 2.68312 54.2295 1 52.2921 1H23.1873C22.1508 1 21.181 1.43908 20.4559 2.23961C19.7686 3.00245 19.3904 4.007 19.3904 5.06699C19.3904 5.9274 18.8143 6.62815 18.107 6.62815H17.2062C15.1131 6.62815 13.4093 8.4532 13.4093 10.6951V15.505C13.4093 16.1991 13.9721 16.7579 14.666 16.7579C15.36 16.7579 15.9228 16.1969 15.9228 15.505V10.6951C15.9228 9.83473 16.4966 9.13399 17.204 9.13399H18.1048C20.2001 9.13399 21.9017 7.30894 21.9017 5.06699C21.9017 4.6257 22.0529 4.21545 22.322 3.9183C22.46 3.76529 22.758 3.50584 23.1873 3.50584H52.2921C52.8326 3.50584 53.2908 4.07575 53.2908 4.74988V22.1799C52.6258 21.8162 51.8895 21.5656 51.1088 21.4592C50.962 20.9292 50.4771 20.5366 49.8966 20.5366C49.8476 20.5366 49.4673 20.53 49.3227 20.561C38.7662 22.7542 30.563 14.2011 28.2987 11.5267C27.8583 11.0078 27.1799 10.7949 26.5282 10.9679C25.8676 11.1431 25.3804 11.6709 25.2559 12.345C23.7901 20.2595 20.0377 20.1841 20.0266 20.1841C19.3326 20.1841 18.7699 20.7451 18.7699 21.437V21.4858C17.7111 21.6654 16.7391 22.1067 15.9228 22.7387V21.1864C15.9228 20.4945 15.36 19.9335 14.666 19.9335C13.9721 19.9335 13.4093 20.4945 13.4093 21.1864V28.2183C13.4093 28.3868 13.4449 28.5487 13.505 28.695C13.9098 31.4936 16.1407 33.7089 18.95 34.0992C19.6329 38.1884 22.2397 41.6345 25.8097 43.4795V49.4669C25.8097 50.0878 25.4627 50.6466 24.9067 50.9238L24.7977 50.977C24.5285 50.2674 23.9903 49.6864 23.2896 49.3759C22.54 49.0433 21.6837 49.0477 20.9385 49.387L15.3756 51.9173C14.7661 52.1967 14.2723 52.649 13.9476 53.2278C13.5895 53.8598 13.4738 54.5828 13.585 55.2724C10.2308 56.3701 7.21912 58.4435 4.99705 61.2155C2.4191 64.4309 1 68.4691 1 72.5893V82.7568C1 84.6306 2.52809 86.1541 4.40761 86.1541H57.2901C57.9841 86.1541 58.5468 85.593 58.5468 84.9012C58.5468 84.2071 57.9841 83.6482 57.2901 83.6482H50.2725L58.5624 66.766C59.1874 65.4931 58.876 63.9541 57.8039 63.0228L55.2126 60.7764C54.9657 60.5635 54.9235 60.202 55.1148 59.9381L56.7429 57.6918C63.1111 59.8206 67.4885 65.8258 67.4885 72.5893V82.7568C67.4885 83.2469 67.0881 83.6482 66.5943 83.6482H62.9865C62.2925 83.6482 61.7298 84.2093 61.7298 84.9012C61.7298 85.593 62.2925 86.1541 62.9865 86.1541H66.5943C68.4738 86.1541 70.0019 84.6306 70.0019 82.7568V72.5893C70.0042 64.9254 65.1552 58.0976 58.0419 55.4875ZM35.0116 83.6482L28.0652 61.4195C30.3762 62.3021 32.6783 62.7456 34.9627 62.7456C37.9766 62.7456 40.9616 61.9783 43.9043 60.4437L36.6576 83.6482H35.0116ZM54.1072 27.7814C54.1072 29.5976 52.8482 31.1277 51.1533 31.5468V24.0182C52.8482 24.4351 54.1072 25.963 54.1072 27.7814ZM15.9495 27.7814C15.9495 26.0184 17.1439 24.5216 18.7676 24.0537V31.5091C17.1439 31.0434 15.9495 29.5488 15.9495 27.7814ZM21.2833 31.9704V22.5546C22.9471 22.1466 25.8898 20.5278 27.409 14.2987C30.4118 17.5053 37.1425 23.4261 45.8662 23.4261C46.7692 23.4261 47.6945 23.3618 48.6376 23.2243V31.9704C48.6376 37.736 43.9333 42.4283 38.1501 42.4283H31.7731C25.9899 42.4283 21.2833 37.736 21.2833 31.9704ZM26.0277 53.168C27.4424 52.4628 28.321 51.0458 28.321 49.4691V44.4641C29.422 44.7656 30.5786 44.932 31.7731 44.932H38.1501C39.369 44.932 40.5501 44.7612 41.6689 44.4463V49.4713C41.6689 51.048 42.5475 52.465 43.9622 53.168L45.8817 54.1259L45.0298 56.8535C39.1177 60.8606 33.2366 61.3175 27.0776 58.2484L25.5651 53.4008L26.0277 53.168ZM16.1385 54.4586C16.203 54.3433 16.2987 54.2568 16.421 54.2013L21.9817 51.6711C22.0974 51.6179 22.1997 51.6401 22.2642 51.6689C22.3176 51.6933 22.411 51.7509 22.4533 51.8818L32.3803 83.6504H24.1949L15.3645 65.6683C15.2399 65.4133 15.3022 65.1028 15.5157 64.9188L18.107 62.6724C19.3415 61.6035 19.5484 59.7984 18.5919 58.4746L16.1719 55.1394C15.9984 54.8976 16.0407 54.6315 16.1385 54.4586ZM3.51345 82.7568V72.5893C3.51345 65.5574 8.1155 59.4769 14.8017 57.521L16.5522 59.9359C16.7435 60.202 16.7035 60.5613 16.4566 60.7764L13.8653 63.025C12.7954 63.9541 12.484 65.4909 13.1068 66.766L21.3967 83.6482H4.40761C3.91382 83.6482 3.51345 83.2491 3.51345 82.7568ZM56.1535 64.9166C56.367 65.1028 56.4293 65.4089 56.3048 65.6639L47.4743 83.6482H39.2912L48.651 53.6913L49.2159 51.8796C49.2538 51.7576 49.3383 51.6977 49.405 51.6689C49.4695 51.6401 49.5718 51.6179 49.6897 51.6689L55.246 54.1991C55.4017 54.2701 55.4862 54.381 55.5329 54.4608C55.6286 54.6293 55.6686 54.8954 55.4951 55.1349L53.0751 58.4701C52.1186 59.794 52.3277 61.5991 53.5622 62.668L56.1535 64.9166Z" stroke="black" stroke-width="0.2" mask="url(#path-1-outside-1)"/>
    </symbol>


    <symbol id="tools" viewBox="0 0 79 78" xmlns="http://www.w3.org/2000/svg">
        <mask id="path-1-outside-1" maskUnits="userSpaceOnUse" x="0.492188" y="0" width="78" height="78" fill="black">
            <rect fill="white" x="0.492188" width="78" height="78"/>
            <path d="M48.3109 38.2763L50.9832 35.6041C51.34 35.2473 51.34 34.6694 50.9832 34.3126L50.1823 33.5117L66.907 16.7871L71.1424 15.2847C71.3451 15.2117 71.5175 15.0718 71.6249 14.8853L76.6531 6.28474C76.8639 5.92588 76.8051 5.47173 76.5111 5.17977L73.6504 2.32305C73.3564 2.02907 72.9022 1.97027 72.5454 2.18113L63.9448 7.20927C63.7603 7.31876 63.6184 7.48907 63.5454 7.69181L62.0431 11.9272L45.3164 28.6519L44.5175 27.851C44.1607 27.4942 43.5829 27.4942 43.226 27.851L40.5538 30.5232L35.331 25.3025C37.9586 18.9362 36.6286 11.6211 31.9269 6.58887C27.2292 1.55261 20.0236 -0.276174 13.4931 1.90945C12.8504 2.12436 12.6577 2.94143 13.1362 3.41992L19.5512 9.83486L18.0245 17.4501L10.1092 18.849L3.9254 12.6226C3.44692 12.1401 2.62782 12.3307 2.41088 12.9754C0.213091 19.508 2.03377 26.7237 7.06799 31.4295C12.1022 36.1373 19.4214 37.4714 25.7938 34.8418L28.8999 37.9499L25.4471 39.8375C25.37 39.8801 25.3011 39.9307 25.2403 39.9936L4.63502 60.5968C1.85535 63.3826 1.85535 67.8917 4.63502 70.6774L8.15067 74.1951C10.9364 76.9748 15.4455 76.9748 18.2333 74.1951L38.8386 53.5899C38.8994 53.529 38.9521 53.4581 38.9947 53.3831L40.8843 49.9323L66.3109 75.3609C67.576 76.6261 69.2913 77.3377 71.0816 77.3377C72.8698 77.3377 74.5871 76.6281 75.8522 75.3609C77.1174 74.0958 77.829 72.3785 77.829 70.5903C77.829 68.8 77.1194 67.0848 75.8522 65.8196L48.3109 38.2763ZM46.5856 43.4585C45.955 44.0871 44.9352 44.0871 44.3046 43.4585L35.3756 34.5295C34.7674 33.8949 34.7775 32.8934 35.4 32.273C36.0204 31.6525 37.024 31.6424 37.6566 32.2486L46.5856 41.1776C47.2141 41.8062 47.2141 42.828 46.5856 43.4585ZM63.4805 13.0707C63.5758 12.9734 63.6488 12.8578 63.6954 12.7301L65.1552 8.61634L72.8596 4.11129L74.7209 5.97251L70.2158 13.6769L66.1021 15.1367C65.9743 15.1813 65.8567 15.2563 65.7615 15.3516L48.8908 32.2223L46.6099 29.9414L63.4805 13.0707ZM43.8728 29.7852L49.0449 34.9573L45.9976 38.0067L40.8235 32.8325L43.8728 29.7852ZM26.6433 33.1123C26.3736 32.8447 25.9661 32.7697 25.6194 32.9278C19.6323 35.6345 12.5949 34.3633 7.93373 29.7305C4.06733 25.8905 2.4717 20.3149 3.72468 15.011L9.15021 20.473C9.36107 20.6859 9.66114 20.7812 9.95715 20.7285L18.9551 19.139C19.3241 19.0741 19.6181 18.7882 19.6911 18.4192L21.4367 9.71321C21.4976 9.41314 21.4043 9.10497 21.1873 8.88803L15.5266 3.22934C21.3759 1.87904 27.4827 3.96734 31.2822 8.61634C35.0817 13.2654 35.9089 19.6661 33.4212 25.1301C33.263 25.4768 33.338 25.8844 33.6057 26.154L37.5734 30.1218C36.0163 29.6149 34.3153 30.2799 33.5164 31.7113L31.8965 30.0914C31.5396 29.7346 30.9638 29.7346 30.607 30.0914C30.2502 30.4482 30.2502 31.024 30.607 31.3809L33.1211 33.8949C33.1981 34.4119 33.3887 34.9026 33.6847 35.3324L30.5685 37.0375L26.6433 33.1123ZM37.4579 52.3936L16.9438 72.9056C14.8718 74.9737 11.5163 74.9737 9.44217 72.9056L5.9245 69.39C3.85647 67.3179 3.85647 63.9624 5.9245 61.8883L26.4365 41.3763L34.9701 36.705L42.1251 43.86L37.4579 52.3936ZM74.5627 74.0714C73.6402 74.9939 72.3872 75.513 71.0816 75.513C69.7759 75.513 68.5229 74.9939 67.6004 74.0714L41.7967 48.2657L43.5018 45.1495C43.9356 45.4475 44.4324 45.6421 44.9555 45.7172C44.9717 45.7354 44.9839 45.7557 45.0021 45.7739L65.0356 65.8095C65.8953 66.6549 67.1726 65.3776 66.3271 64.518L47.1208 45.3137C48.5542 44.5189 49.2213 42.8158 48.7104 41.2587L74.5607 67.1091C75.4832 68.0316 76.0022 69.2846 76.0022 70.5903C76.0043 71.896 75.4852 73.1469 74.5627 74.0714Z"/>
        </mask>
        <path d="M48.3109 38.2763L50.9832 35.6041C51.34 35.2473 51.34 34.6694 50.9832 34.3126L50.1823 33.5117L66.907 16.7871L71.1424 15.2847C71.3451 15.2117 71.5175 15.0718 71.6249 14.8853L76.6531 6.28474C76.8639 5.92588 76.8051 5.47173 76.5111 5.17977L73.6504 2.32305C73.3564 2.02907 72.9022 1.97027 72.5454 2.18113L63.9448 7.20927C63.7603 7.31876 63.6184 7.48907 63.5454 7.69181L62.0431 11.9272L45.3164 28.6519L44.5175 27.851C44.1607 27.4942 43.5829 27.4942 43.226 27.851L40.5538 30.5232L35.331 25.3025C37.9586 18.9362 36.6286 11.6211 31.9269 6.58887C27.2292 1.55261 20.0236 -0.276174 13.4931 1.90945C12.8504 2.12436 12.6577 2.94143 13.1362 3.41992L19.5512 9.83486L18.0245 17.4501L10.1092 18.849L3.9254 12.6226C3.44692 12.1401 2.62782 12.3307 2.41088 12.9754C0.213091 19.508 2.03377 26.7237 7.06799 31.4295C12.1022 36.1373 19.4214 37.4714 25.7938 34.8418L28.8999 37.9499L25.4471 39.8375C25.37 39.8801 25.3011 39.9307 25.2403 39.9936L4.63502 60.5968C1.85535 63.3826 1.85535 67.8917 4.63502 70.6774L8.15067 74.1951C10.9364 76.9748 15.4455 76.9748 18.2333 74.1951L38.8386 53.5899C38.8994 53.529 38.9521 53.4581 38.9947 53.3831L40.8843 49.9323L66.3109 75.3609C67.576 76.6261 69.2913 77.3377 71.0816 77.3377C72.8698 77.3377 74.5871 76.6281 75.8522 75.3609C77.1174 74.0958 77.829 72.3785 77.829 70.5903C77.829 68.8 77.1194 67.0848 75.8522 65.8196L48.3109 38.2763ZM46.5856 43.4585C45.955 44.0871 44.9352 44.0871 44.3046 43.4585L35.3756 34.5295C34.7674 33.8949 34.7775 32.8934 35.4 32.273C36.0204 31.6525 37.024 31.6424 37.6566 32.2486L46.5856 41.1776C47.2141 41.8062 47.2141 42.828 46.5856 43.4585ZM63.4805 13.0707C63.5758 12.9734 63.6488 12.8578 63.6954 12.7301L65.1552 8.61634L72.8596 4.11129L74.7209 5.97251L70.2158 13.6769L66.1021 15.1367C65.9743 15.1813 65.8567 15.2563 65.7615 15.3516L48.8908 32.2223L46.6099 29.9414L63.4805 13.0707ZM43.8728 29.7852L49.0449 34.9573L45.9976 38.0067L40.8235 32.8325L43.8728 29.7852ZM26.6433 33.1123C26.3736 32.8447 25.9661 32.7697 25.6194 32.9278C19.6323 35.6345 12.5949 34.3633 7.93373 29.7305C4.06733 25.8905 2.4717 20.3149 3.72468 15.011L9.15021 20.473C9.36107 20.6859 9.66114 20.7812 9.95715 20.7285L18.9551 19.139C19.3241 19.0741 19.6181 18.7882 19.6911 18.4192L21.4367 9.71321C21.4976 9.41314 21.4043 9.10497 21.1873 8.88803L15.5266 3.22934C21.3759 1.87904 27.4827 3.96734 31.2822 8.61634C35.0817 13.2654 35.9089 19.6661 33.4212 25.1301C33.263 25.4768 33.338 25.8844 33.6057 26.154L37.5734 30.1218C36.0163 29.6149 34.3153 30.2799 33.5164 31.7113L31.8965 30.0914C31.5396 29.7346 30.9638 29.7346 30.607 30.0914C30.2502 30.4482 30.2502 31.024 30.607 31.3809L33.1211 33.8949C33.1981 34.4119 33.3887 34.9026 33.6847 35.3324L30.5685 37.0375L26.6433 33.1123ZM37.4579 52.3936L16.9438 72.9056C14.8718 74.9737 11.5163 74.9737 9.44217 72.9056L5.9245 69.39C3.85647 67.3179 3.85647 63.9624 5.9245 61.8883L26.4365 41.3763L34.9701 36.705L42.1251 43.86L37.4579 52.3936ZM74.5627 74.0714C73.6402 74.9939 72.3872 75.513 71.0816 75.513C69.7759 75.513 68.5229 74.9939 67.6004 74.0714L41.7967 48.2657L43.5018 45.1495C43.9356 45.4475 44.4324 45.6421 44.9555 45.7172C44.9717 45.7354 44.9839 45.7557 45.0021 45.7739L65.0356 65.8095C65.8953 66.6549 67.1726 65.3776 66.3271 64.518L47.1208 45.3137C48.5542 44.5189 49.2213 42.8158 48.7104 41.2587L74.5607 67.1091C75.4832 68.0316 76.0022 69.2846 76.0022 70.5903C76.0043 71.896 75.4852 73.1469 74.5627 74.0714Z" fill="black"/>
        <path d="M48.3109 38.2763L50.9832 35.6041C51.34 35.2473 51.34 34.6694 50.9832 34.3126L50.1823 33.5117L66.907 16.7871L71.1424 15.2847C71.3451 15.2117 71.5175 15.0718 71.6249 14.8853L76.6531 6.28474C76.8639 5.92588 76.8051 5.47173 76.5111 5.17977L73.6504 2.32305C73.3564 2.02907 72.9022 1.97027 72.5454 2.18113L63.9448 7.20927C63.7603 7.31876 63.6184 7.48907 63.5454 7.69181L62.0431 11.9272L45.3164 28.6519L44.5175 27.851C44.1607 27.4942 43.5829 27.4942 43.226 27.851L40.5538 30.5232L35.331 25.3025C37.9586 18.9362 36.6286 11.6211 31.9269 6.58887C27.2292 1.55261 20.0236 -0.276174 13.4931 1.90945C12.8504 2.12436 12.6577 2.94143 13.1362 3.41992L19.5512 9.83486L18.0245 17.4501L10.1092 18.849L3.9254 12.6226C3.44692 12.1401 2.62782 12.3307 2.41088 12.9754C0.213091 19.508 2.03377 26.7237 7.06799 31.4295C12.1022 36.1373 19.4214 37.4714 25.7938 34.8418L28.8999 37.9499L25.4471 39.8375C25.37 39.8801 25.3011 39.9307 25.2403 39.9936L4.63502 60.5968C1.85535 63.3826 1.85535 67.8917 4.63502 70.6774L8.15067 74.1951C10.9364 76.9748 15.4455 76.9748 18.2333 74.1951L38.8386 53.5899C38.8994 53.529 38.9521 53.4581 38.9947 53.3831L40.8843 49.9323L66.3109 75.3609C67.576 76.6261 69.2913 77.3377 71.0816 77.3377C72.8698 77.3377 74.5871 76.6281 75.8522 75.3609C77.1174 74.0958 77.829 72.3785 77.829 70.5903C77.829 68.8 77.1194 67.0848 75.8522 65.8196L48.3109 38.2763ZM46.5856 43.4585C45.955 44.0871 44.9352 44.0871 44.3046 43.4585L35.3756 34.5295C34.7674 33.8949 34.7775 32.8934 35.4 32.273C36.0204 31.6525 37.024 31.6424 37.6566 32.2486L46.5856 41.1776C47.2141 41.8062 47.2141 42.828 46.5856 43.4585ZM63.4805 13.0707C63.5758 12.9734 63.6488 12.8578 63.6954 12.7301L65.1552 8.61634L72.8596 4.11129L74.7209 5.97251L70.2158 13.6769L66.1021 15.1367C65.9743 15.1813 65.8567 15.2563 65.7615 15.3516L48.8908 32.2223L46.6099 29.9414L63.4805 13.0707ZM43.8728 29.7852L49.0449 34.9573L45.9976 38.0067L40.8235 32.8325L43.8728 29.7852ZM26.6433 33.1123C26.3736 32.8447 25.9661 32.7697 25.6194 32.9278C19.6323 35.6345 12.5949 34.3633 7.93373 29.7305C4.06733 25.8905 2.4717 20.3149 3.72468 15.011L9.15021 20.473C9.36107 20.6859 9.66114 20.7812 9.95715 20.7285L18.9551 19.139C19.3241 19.0741 19.6181 18.7882 19.6911 18.4192L21.4367 9.71321C21.4976 9.41314 21.4043 9.10497 21.1873 8.88803L15.5266 3.22934C21.3759 1.87904 27.4827 3.96734 31.2822 8.61634C35.0817 13.2654 35.9089 19.6661 33.4212 25.1301C33.263 25.4768 33.338 25.8844 33.6057 26.154L37.5734 30.1218C36.0163 29.6149 34.3153 30.2799 33.5164 31.7113L31.8965 30.0914C31.5396 29.7346 30.9638 29.7346 30.607 30.0914C30.2502 30.4482 30.2502 31.024 30.607 31.3809L33.1211 33.8949C33.1981 34.4119 33.3887 34.9026 33.6847 35.3324L30.5685 37.0375L26.6433 33.1123ZM37.4579 52.3936L16.9438 72.9056C14.8718 74.9737 11.5163 74.9737 9.44217 72.9056L5.9245 69.39C3.85647 67.3179 3.85647 63.9624 5.9245 61.8883L26.4365 41.3763L34.9701 36.705L42.1251 43.86L37.4579 52.3936ZM74.5627 74.0714C73.6402 74.9939 72.3872 75.513 71.0816 75.513C69.7759 75.513 68.5229 74.9939 67.6004 74.0714L41.7967 48.2657L43.5018 45.1495C43.9356 45.4475 44.4324 45.6421 44.9555 45.7172C44.9717 45.7354 44.9839 45.7557 45.0021 45.7739L65.0356 65.8095C65.8953 66.6549 67.1726 65.3776 66.3271 64.518L47.1208 45.3137C48.5542 44.5189 49.2213 42.8158 48.7104 41.2587L74.5607 67.1091C75.4832 68.0316 76.0022 69.2846 76.0022 70.5903C76.0043 71.896 75.4852 73.1469 74.5627 74.0714Z" stroke="black" mask="url(#path-1-outside-1)"/>
        <path d="M29.581 20.4802L29.581 20.4804C29.5319 21.1209 30.0099 21.6784 30.6495 21.73L30.6596 21.7308H30.6696C30.6744 21.7308 30.6805 21.731 30.6937 21.7316L30.6947 21.7317C30.706 21.7321 30.7228 21.7329 30.7406 21.7329C31.3479 21.7329 31.8516 21.2651 31.8982 20.6607C32.0446 18.7605 31.8136 16.8519 31.2152 15.0423C31.0987 14.6889 30.8706 14.4511 30.5917 14.3307C30.3184 14.2127 30.0141 14.2148 29.747 14.3032C29.4799 14.3915 29.2343 14.5711 29.0853 14.8286C28.9332 15.0914 28.8919 15.418 29.0089 15.7707C29.5095 17.2883 29.7041 18.8893 29.581 20.4802Z" fill="black" stroke="black" stroke-width="0.5"/>
        <path d="M28.7626 10.5513L28.7626 10.5513C28.5288 10.2622 28.2314 10.1206 27.928 10.1066C27.6308 10.0929 27.3469 10.2024 27.1281 10.3793C26.9094 10.5562 26.743 10.8108 26.6942 11.1043C26.6444 11.4038 26.7208 11.7241 26.9544 12.013C27.2168 12.339 27.4629 12.6764 27.6909 13.0273C28.037 13.5709 28.7619 13.7312 29.3046 13.3774C29.8469 13.0259 29.9964 12.2985 29.6409 11.7614C29.3689 11.3431 29.0761 10.9391 28.7626 10.5513Z" fill="black" stroke="black" stroke-width="0.5"/>
        <path d="M14.1634 66.9527L14.1634 66.9527L14.1619 66.9542C13.9031 67.2174 13.7959 67.5269 13.8146 67.8283C13.8329 68.1238 13.9708 68.3931 14.1686 68.5912C14.3665 68.7892 14.6357 68.9273 14.9312 68.9455C15.2328 68.9641 15.5421 68.8563 15.8052 68.597L15.8064 68.5958L30.3817 54.0205C30.6451 53.7577 30.7555 53.4473 30.738 53.1441C30.7209 52.847 30.5826 52.5762 30.3838 52.3773C30.185 52.1784 29.9144 52.0398 29.6174 52.0224C29.3143 52.0045 29.0038 52.1143 28.741 52.3772L14.1634 66.9527Z" fill="black" stroke="black" stroke-width="0.5"/>
        <path d="M10.2337 63.0228L10.2337 63.0228L10.2322 63.0243C9.97345 63.2875 9.86619 63.597 9.88488 63.8984C9.9032 64.1939 10.0411 64.4632 10.239 64.6613C10.4369 64.8593 10.706 64.9974 11.0015 65.0156C11.3031 65.0342 11.6125 64.9264 11.8755 64.6671L11.8767 64.6659L26.4543 50.0924L26.4543 50.0924C26.9088 49.6379 26.9088 48.9018 26.4543 48.4473C25.9998 47.9928 25.2657 47.9928 24.8113 48.4473L10.2337 63.0228Z" fill="black" stroke="black" stroke-width="0.5"/>
    </symbol>

    <symbol id="logo" viewBox="0 0 170 54" xmlns="http://www.w3.org/2000/svg">
        <path d="M37.0791 17.0322C39.9038 19.4598 41.437 22.7557 41.6279 26.1189C41.8251 29.4882 40.6863 32.9248 38.1606 35.6398C35.6349 38.3548 32.2058 39.8285 28.7067 40.012C25.2012 40.2015 21.6258 39.107 18.801 36.6794C15.9763 34.2518 14.443 30.9558 14.2522 27.5926C14.055 24.2233 15.2001 20.7868 17.7195 18.0717C20.2388 15.3567 23.6743 13.883 27.1734 13.6996C30.6789 13.51 34.2543 14.6107 37.0791 17.0322Z" fill="#48C6E4"/>
        <path d="M42.768 10.9177C47.3486 14.8496 49.8361 20.2001 50.1542 25.6607C50.4723 31.1213 48.621 36.7042 44.5302 41.1008C40.4395 45.5035 34.8727 47.8944 29.1914 48.2002C23.5102 48.5059 17.7016 46.7265 13.1274 42.7946C8.54035 38.8628 6.05281 33.5122 5.7347 28.0516C5.49295 23.9363 6.48542 19.7537 8.74393 16.0603C7.43336 14.446 7.47153 12.1101 8.94116 10.5324C10.4108 8.94868 12.822 8.65517 14.6352 9.72527C18.2042 7.15702 22.4159 5.74448 26.6975 5.51211C32.3788 5.20637 38.1873 6.9858 42.768 10.9177ZM16.3211 11.4986C17.1036 13.0334 16.8937 14.929 15.6404 16.2804C14.3807 17.6318 12.4403 18.0415 10.7671 17.4667C8.85209 20.6954 8.0123 24.3338 8.21589 27.9171C8.49582 32.7662 10.7098 37.5175 14.7751 41.0091C18.8404 44.5007 24 46.0844 29.0451 45.8093C34.0902 45.5402 39.0335 43.4122 42.6662 39.5048C46.2989 35.5974 47.9466 30.6382 47.6603 25.7891C47.3804 20.94 45.1664 16.1887 41.1011 12.6971C37.0358 9.20551 31.8762 7.62175 26.8311 7.89692C23.1157 8.09871 19.4448 9.30946 16.3211 11.4986Z" fill="#EC4A42"/>
        <path d="M55.8775 26.3766C55.9412 29.7459 55.3431 33.0663 54.1471 36.1727C52.9383 39.3096 51.1315 42.2264 48.7775 44.7519C48.3195 45.241 47.5369 45.2839 47.0216 44.8436C46.5127 44.4033 46.4681 43.6512 46.9262 43.1559C49.0765 40.8444 50.7307 38.1845 51.8249 35.3349C52.9128 32.5037 53.46 29.483 53.4027 26.4133C53.3773 26.0953 53.4791 25.7712 53.7145 25.5144C54.1725 25.0252 54.955 24.9824 55.4704 25.4227C55.7567 25.6795 55.8966 26.0342 55.8775 26.3766Z" fill="#48C6E4"/>
        <path d="M3.03594 39.0215C1.18459 35.5177 0.173033 31.7142 0.020345 27.8863C-0.132343 24.0339 0.57384 20.1449 2.15798 16.5065C2.20888 16.3659 2.29158 16.2375 2.39974 16.1152C2.8578 15.6198 3.64033 15.5832 4.15565 16.0234C4.57554 16.3842 4.6837 16.9529 4.45466 17.4237C3.01049 20.7441 2.36156 24.2908 2.50153 27.8007C2.64149 31.2923 3.55762 34.7595 5.24355 37.9453C5.53621 38.3856 5.5044 38.9787 5.12268 39.3884C4.66461 39.8837 3.88208 39.9204 3.36676 39.4802C3.21407 39.3517 3.10592 39.1928 3.03594 39.0215Z" fill="#48C6E4"/>
        <path fill-rule="evenodd" clip-rule="evenodd" d="M46.567 6.83302C47.076 7.27329 47.1205 8.02542 46.6624 8.52073C46.2044 9.00992 45.4219 9.05272 44.9065 8.61245C40.4913 4.82122 35.0009 2.73604 29.4087 2.43029C23.8356 2.11843 18.1606 3.56766 13.3319 6.82079C12.8675 7.18157 12.1867 7.17545 11.7287 6.77798C11.2197 6.33771 11.1752 5.58558 11.6332 5.09027C11.7223 4.99855 11.8177 4.91906 11.9195 4.85791C17.2191 1.29292 23.4475 -0.29695 29.555 0.0454837C35.6943 0.387918 41.7192 2.66877 46.567 6.83302Z" fill="#48C6E4"/>
        <path fill-rule="evenodd" clip-rule="evenodd" d="M9.31459 46.8789C8.80563 46.4386 8.7611 45.6865 9.21916 45.1912C9.67722 44.702 10.4598 44.6592 10.9751 45.0994C14.7859 48.3709 19.4238 50.3949 24.2653 51.0737C29.0813 51.7463 34.101 51.0981 38.7071 49.0313C39.1588 48.7928 39.7313 48.8356 40.1385 49.1842C40.6538 49.6245 40.692 50.3766 40.2339 50.8719C40.094 51.0187 39.9286 51.1287 39.7504 51.1899C34.699 53.4524 29.1959 54.1678 23.909 53.4279C18.5904 52.688 13.4944 50.4683 9.31459 46.8789Z" fill="#EC4A42"/>
        <path d="M65.7773 22.8046C65.7773 29.8612 71.6431 36.1106 78.9403 36.2268H87.0392C94.3364 36.1106 100.202 29.8612 100.202 22.8046V9.3457H92.9431V22.7924C92.9431 26.5652 89.7939 29.4759 85.8813 29.4759H80.1364C76.2301 29.4759 73.0746 26.5591 73.0746 22.7924V9.3457H65.7773V22.8046ZM132.394 15.8275V9.3457H111.412C106.742 9.65145 102.995 13.3326 102.995 17.9371C102.995 22.4988 106.666 25.7214 111.329 26.0271H125.968C127.043 26.0638 127.921 26.8343 127.921 27.8677C127.921 28.9806 127.005 29.745 125.886 29.745H103.027V36.2268H125.968C130.593 35.921 135.104 32.2399 135.104 27.6354C135.104 22.9208 131.115 19.6615 126.331 19.5453H112.252C111.132 19.5453 110.216 18.781 110.216 17.7048C110.216 16.6285 111.094 15.8642 112.169 15.8275H132.394ZM167.296 15.8275V9.3457H146.314C141.644 9.65145 137.897 13.3326 137.897 17.9371C137.897 22.4988 141.568 25.7214 146.231 26.0271H160.87C161.945 26.0638 162.823 26.8343 162.823 27.8677C162.823 28.9806 161.907 29.745 160.788 29.745H137.929V36.2268H160.864C165.489 35.921 170 32.2399 170 27.6354C170 22.9208 166.011 19.6615 161.227 19.5453H147.154C146.034 19.5453 145.118 18.781 145.118 17.7048C145.118 16.6285 145.996 15.8642 147.071 15.8275H167.296Z" fill="#48C6E4"/>
        <path d="M66.2549 44.2438C66.2549 45.375 67.1965 46.3779 68.3607 46.3962H69.6586C70.8292 46.3779 71.7644 45.375 71.7644 44.2438V42.0852H70.6002V44.2377C70.6002 44.843 70.0976 45.3078 69.4677 45.3078H68.5452C67.9218 45.3078 67.4128 44.843 67.4128 44.2377V42.0852H66.2422V44.2438H66.2549ZM77.8083 43.1125V42.0852C77.0322 42.0852 74.7864 42.0913 74.7355 42.0913C73.6158 42.1586 72.7314 43.1431 72.7314 44.2438C72.7314 45.3506 73.6666 46.3779 74.8182 46.3962H77.8083V43.724H74.9454V44.7513H76.6441V45.3628H75.0154C74.4046 45.3628 73.8893 44.8369 73.8893 44.2377C73.8893 43.6506 74.3601 43.137 74.9581 43.1064H77.8083V43.1125ZM79.946 45.3567H81.1929L82.2617 46.3962H83.9095L82.7516 45.2711C83.4196 45.0571 83.9095 44.4333 83.9095 43.724C83.9095 42.8373 83.1651 42.1097 82.249 42.0913H78.7753V46.3962H79.9523V45.3567H79.946ZM79.946 43.1186H82.2554C82.6116 43.1186 82.8852 43.3938 82.8852 43.7118C82.8852 44.042 82.6053 44.311 82.2681 44.311H79.946V43.1186ZM88.6492 45.3995L89.19 46.3962H90.526L88.172 42.0913H86.8296L84.4757 46.3962H85.8117L86.3525 45.3995H88.6492ZM88.0893 44.36H86.9251L87.504 43.296L88.0893 44.36ZM99.3946 43.1247V42.0852H96.0355C95.2848 42.1341 94.6867 42.7212 94.6867 43.4611C94.6867 44.1949 95.272 44.7085 96.0227 44.7574H98.3703C98.5421 44.7635 98.6821 44.8858 98.6821 45.0509C98.6821 45.2283 98.5357 45.3506 98.3576 45.3506H94.6931V46.3901H98.3703C99.1147 46.3412 99.8336 45.7542 99.8336 45.0143C99.8336 44.256 99.1974 43.7362 98.4276 43.7179H96.1691C95.9909 43.7179 95.8446 43.5956 95.8446 43.4244C95.8446 43.2532 95.9846 43.1309 96.1563 43.1247H99.3946ZM103.574 45.0693L105.19 43.6201V46.3901H106.374V42.0852H105.19L103.574 43.5283L101.958 42.0852H100.782V46.3901H101.958V43.6201L103.574 45.0693ZM111.502 45.3995L112.042 46.3962H113.378L111.024 42.0913H109.682L107.328 46.3962H108.664L109.205 45.3995H111.502ZM110.942 44.36H109.777L110.356 43.296L110.942 44.36ZM115.516 45.3567H116.763L117.832 46.3962H119.479L118.322 45.2711C118.99 45.0571 119.479 44.4333 119.479 43.724C119.479 42.8373 118.735 42.1097 117.819 42.0913H114.345V46.3962H115.522V45.3567H115.516ZM115.516 43.1186H117.825C118.182 43.1186 118.455 43.3938 118.455 43.7118C118.455 44.042 118.175 44.311 117.838 44.311H115.516V43.1186ZM123.589 43.1247H125.568V42.0852H120.427V43.1247H122.406V46.3901H123.583V43.1247H123.589ZM134.437 43.1247V42.0852H131.077C130.327 42.1341 129.729 42.7212 129.729 43.4611C129.729 44.1949 130.314 44.7085 131.065 44.7574H133.412C133.584 44.7635 133.724 44.8858 133.724 45.0509C133.724 45.2283 133.578 45.3506 133.4 45.3506H129.735V46.3901H133.412C134.157 46.3412 134.876 45.7542 134.876 45.0143C134.876 44.256 134.239 43.7362 133.47 43.7179H131.211C131.033 43.7179 130.887 43.5956 130.887 43.4244C130.887 43.2532 131.027 43.1309 131.198 43.1247H134.437ZM137.007 45.3567V44.7635H139.832V43.724H137.007V43.1247H140.97V42.0852H135.83V46.3901H140.97V45.3506H137.007V45.3567ZM143.356 45.3567H144.603L145.672 46.3962H147.32L146.162 45.2711C146.83 45.0571 147.32 44.4333 147.32 43.724C147.32 42.8373 146.575 42.1097 145.659 42.0913H142.185V46.3962H143.362V45.3567H143.356ZM143.356 43.1186H145.666C146.022 43.1186 146.295 43.3938 146.295 43.7118C146.295 44.042 146.015 44.311 145.678 44.311H143.356V43.1186ZM149.61 42.0852H148.28L150.634 46.3901H151.958L154.305 42.0852H152.975L151.296 45.1794L149.61 42.0852ZM156.691 46.3901V42.0852H155.514V46.3901H156.691ZM162.786 46.3901V45.3506H159.961C159.331 45.3506 158.822 44.843 158.822 44.2315C158.822 43.6445 159.299 43.1492 159.904 43.1186H162.786V42.0791C161.997 42.0791 159.745 42.0852 159.675 42.0852C158.542 42.1647 157.652 43.1186 157.652 44.2315C157.652 45.3567 158.593 46.3718 159.764 46.3901H162.786ZM164.917 45.3567V44.7635H167.742V43.724H164.917V43.1247H168.88V42.0852H163.74V46.3901H168.88V45.3506H164.917V45.3567Z" fill="#EC4A42"/>
    </symbol>

    <symbol id="geo" viewBox="0 0 87 87" xmlns="http://www.w3.org/2000/svg">
        <path d="M54.1611 24.163V24.1628C54.1611 19.817 51.541 15.9003 47.5274 14.2377L47.5273 14.2377C43.5112 12.575 38.8916 13.496 35.8184 16.5668L35.8184 16.5669C32.7451 19.6401 31.8265 24.2622 33.4892 28.2759C35.1519 32.2921 39.0711 34.9072 43.4167 34.9072H43.4169C49.3477 34.9024 54.1562 30.0938 54.1611 24.163ZM50.6675 27.1689L50.6674 27.169C49.4544 30.1007 46.5923 32.012 43.4193 32.012C39.0841 32.0074 35.5747 28.4957 35.5699 24.1628C35.5699 20.9899 37.4834 18.1299 40.4154 16.9145C43.3473 15.7014 46.7221 16.3718 48.9673 18.617C51.2103 20.8624 51.8828 24.2372 50.6675 27.1689Z" fill="black" stroke="black" stroke-width="0.4"/>
        <path d="M55.4971 56.4475H74.4046C75.006 56.4475 75.5441 56.8173 75.7593 57.38L75.7594 57.3802L85.9396 84.0676L55.4971 56.4475ZM55.4971 56.4475C55.5519 56.359 55.6066 56.2702 55.661 56.1801L55.6611 56.18C63.0838 43.8923 66.834 33.1177 66.7814 24.1688C66.7831 11.2644 56.3231 0.802399 43.4185 0.8C30.5161 0.797601 20.0512 11.2575 20.0485 24.1622M55.4971 56.4475L0.8972 84.0682M20.0485 24.1622C20.0485 24.162 20.0485 24.1618 20.0485 24.1616L20.2485 24.1629L20.0485 24.1628C20.0485 24.1626 20.0485 24.1624 20.0485 24.1622ZM20.0485 24.1622C19.9936 33.1206 23.7463 43.8949 31.1687 56.1824L31.1692 56.1831C31.2234 56.272 31.2786 56.3613 31.3334 56.4499H12.4253C11.8239 56.4499 11.2857 56.8197 11.0706 57.3824L11.0705 57.3826L0.897356 84.0677C0.897304 84.0679 0.897252 84.068 0.8972 84.0682M0.8972 84.0682C0.533259 85.0174 1.23438 86.0357 2.25252 86.033L0.8972 84.0682ZM84.5892 86.033C85.6032 86.0357 86.3036 85.0145 85.9398 84.0681L84.5892 86.033ZM22.9508 24.1641V24.1629C22.9508 18.7356 25.1085 13.5298 28.9481 9.69013C32.7878 5.8529 37.9936 3.69754 43.4233 3.69754C54.7253 3.69989 63.8886 12.8655 63.8862 24.17L63.8862 24.1712C63.9394 32.9862 59.8419 42.8523 55.1895 51.1877C50.6524 59.3167 45.6034 65.9622 43.4185 68.7119C41.2335 65.9634 36.1846 59.3202 31.6475 51.1913C26.9951 42.8559 22.8976 32.9874 22.9508 24.1641ZM42.3124 71.9428L42.3149 71.9457C42.8943 72.6244 43.9427 72.6244 44.5221 71.9457L44.5245 71.9427C47.8222 67.926 50.8802 63.7189 53.6846 59.3426H73.4081L74.8846 63.2162L36.1884 76.9782L22.6124 59.3403H33.1501C35.9568 63.7165 39.0148 67.9259 42.3124 71.9428ZM27.5224 83.1354L36.1103 80.0793H36.1174L36.1499 80.0678L59.2948 71.8389L67.9876 83.1354H27.5224ZM4.35245 83.1331L13.4288 59.3403H18.9584L33.316 77.9992L18.8796 83.1331H4.35245ZM82.487 83.1354H71.6464L62.1648 70.8131L75.9215 65.9211L82.487 83.1354Z" fill="black" stroke="black" stroke-width="0.4"/>
    </symbol>
    
    <symbol id="breadcrumbs" viewBox="0 0 5 7" xmlns="http://www.w3.org/2000/svg">
     <path d="M0 0L5 3.50165L0 7" fill="black"/>
    </symbol>

    <symbol id="filter" viewBox="0 0 26 26" xmlns="http://www.w3.org/2000/svg">
      <path d="M1.75,7.75h6.6803589c0.3355713,1.2952271,1.5039063,2.2587891,2.9026489,2.2587891   S13.9000854,9.0452271,14.2356567,7.75H24.25C24.6640625,7.75,25,7.4140625,25,7s-0.3359375-0.75-0.75-0.75H14.2356567   c-0.3355713-1.2952271-1.5039063-2.2587891-2.9026489-2.2587891S8.7659302,4.9547729,8.4303589,6.25H1.75   C1.3359375,6.25,1,6.5859375,1,7S1.3359375,7.75,1.75,7.75z M11.3330078,5.4912109   c0.8320313,0,1.5087891,0.6767578,1.5087891,1.5087891s-0.6767578,1.5087891-1.5087891,1.5087891S9.8242188,7.8320313,9.8242188,7   S10.5009766,5.4912109,11.3330078,5.4912109z" fill="#1D1D1B"/><path d="M24.25,12.25h-1.6061401c-0.3355713-1.2952271-1.5039063-2.2587891-2.9026489-2.2587891   S17.1741333,10.9547729,16.838562,12.25H1.75C1.3359375,12.25,1,12.5859375,1,13s0.3359375,0.75,0.75,0.75h15.088562   c0.3355713,1.2952271,1.5039063,2.2587891,2.9026489,2.2587891s2.5670776-0.963562,2.9026489-2.2587891H24.25   c0.4140625,0,0.75-0.3359375,0.75-0.75S24.6640625,12.25,24.25,12.25z M19.7412109,14.5087891   c-0.8320313,0-1.5087891-0.6767578-1.5087891-1.5087891s0.6767578-1.5087891,1.5087891-1.5087891S21.25,12.1679688,21.25,13   S20.5732422,14.5087891,19.7412109,14.5087891z" fill="#1D1D1B"/><path d="M24.25,18.25H9.7181396c-0.3355103-1.2952271-1.5037842-2.2587891-2.9017334-2.2587891   c-1.3987427,0-2.5670776,0.963562-2.9026489,2.2587891H1.75C1.3359375,18.25,1,18.5859375,1,19s0.3359375,0.75,0.75,0.75h2.1637573   c0.3355713,1.2952271,1.5039063,2.2587891,2.9026489,2.2587891c1.3979492,0,2.5662231-0.963562,2.9017334-2.2587891H24.25   c0.4140625,0,0.75-0.3359375,0.75-0.75S24.6640625,18.25,24.25,18.25z M6.8164063,20.5087891   c-0.8320313,0-1.5087891-0.6767578-1.5087891-1.5087891s0.6767578-1.5087891,1.5087891-1.5087891   c0.8310547,0,1.5078125,0.6767578,1.5078125,1.5087891S7.6474609,20.5087891,6.8164063,20.5087891z" fill="#1D1D1B"/>
    </symbol>


    <symbol id="close" viewBox="0 0 20 20" xmlns="http://www.w3.org/2000/svg">
    <path d="M10 8.586L2.929 1.515 1.515 2.929 8.586 10l-7.071 7.071 1.414 1.414L10 11.414l7.071 7.071 1.414-1.414L11.414 10l7.071-7.071-1.414-1.414L10 8.586z"/>
    </symbol>

    <symbol id="pdf" viewBox="0 0 40 40" fill="none" xmlns="http://www.w3.org/2000/svg">
     <path d="M6.66667 0V8.33333H0V23.3333H6.66667V40H30L40 30V0H6.66667ZM1.66667 10H26.6667V21.6667H1.66667V10ZM30 37.6437V30H37.6437L30 37.6437ZM38.3333 28.3333H28.3333V38.3333H8.33333V23.3333H28.3333V8.33333H8.33333V1.66667H38.3333V28.3333Z" fill="black"/>
      <path d="M7.60182 12.2812C7.96848 12.2812 8.27473 12.3427 8.52682 12.4667C8.7789 12.5906 8.9789 12.7521 9.13202 12.9521C9.28515 13.1521 9.39557 13.3802 9.46223 13.6375C9.52681 13.8927 9.56223 14.1562 9.56223 14.4229C9.56223 14.7896 9.50702 15.1094 9.39765 15.3833C9.28723 15.6562 9.13411 15.8802 8.93723 16.0521C8.74036 16.225 8.50182 16.3573 8.22265 16.4417C7.94244 16.5271 7.63307 16.5729 7.29244 16.5729H6.52265V19.4229H5.08203V12.2833L7.60182 12.2812ZM7.16224 15.5146C7.44869 15.5146 7.68203 15.426 7.85703 15.2531C8.03411 15.0802 8.12161 14.8094 8.12161 14.4427C8.12161 14.0823 8.04453 13.8094 7.8914 13.6229C7.73828 13.4375 7.48099 13.3427 7.12161 13.3427H6.52161V15.5146H7.16224Z" fill="#EC4A42"/>
      <path d="M13.7031 12.2734C14.2052 12.2734 14.6063 12.3568 14.9146 12.5203C15.2208 12.6839 15.4594 12.9151 15.6292 13.2203C15.8011 13.5234 15.9146 13.887 15.974 14.3151C16.0344 14.7422 16.0636 15.2182 16.0636 15.7432C16.0636 16.3703 16.0271 16.9151 15.95 17.3786C15.8729 17.8401 15.7417 18.2234 15.5552 18.5234C15.3688 18.8255 15.1188 19.0464 14.8052 19.1932C14.4917 19.3401 14.0948 19.413 13.6156 19.413H11.3438V12.2734H13.7031ZM13.4229 18.3568C13.6761 18.3568 13.8792 18.313 14.0333 18.2266C14.1875 18.1401 14.3083 17.9964 14.3979 17.7964C14.4896 17.5964 14.55 17.3328 14.5781 17.0047C14.6083 16.6797 14.6229 16.2734 14.6229 15.7859C14.6229 15.3797 14.6083 15.0224 14.5833 14.7141C14.5563 14.4078 14.5021 14.1526 14.4188 13.9495C14.3333 13.7464 14.2125 13.5932 14.0469 13.4911C13.8833 13.388 13.6656 13.3349 13.3917 13.3349H12.7833V18.3568H13.4229Z" fill="#EC4A42"/>
      <path d="M22.0052 12.2812V13.4615H19.4552V15.1417H21.8552V16.3219H19.4552V19.4219H18.0156V12.2823L22.0052 12.2812Z" fill="#EC4A42"/>
    </symbol>     


    <symbol id="about-company" viewBox="0 0 420 403" fill="none" xmlns="http://www.w3.org/2000/svg">
        <path d="M278.123 127.76C299.311 145.969 310.812 170.691 312.243 195.918C313.723 221.191 305.181 246.968 286.235 267.333C267.29 287.698 241.569 298.752 215.323 300.128C189.028 301.55 162.209 293.34 141.021 275.131C119.833 256.921 108.333 232.199 106.901 206.972C105.422 181.699 114.012 155.922 132.909 135.557C151.806 115.192 177.576 104.138 203.822 102.762C230.116 101.34 256.935 109.596 278.123 127.76Z" fill="#48C6E4"/>
        <path d="M320.79 81.8923C355.149 111.385 373.808 151.519 376.194 192.478C378.58 233.437 364.693 275.314 334.009 308.292C303.325 341.317 261.569 359.251 218.954 361.544C176.34 363.837 132.771 350.49 98.4598 320.997C64.0532 291.505 45.3944 251.371 43.0084 210.412C41.195 179.543 48.6394 148.17 65.5802 120.466C55.7498 108.358 56.0361 90.8363 67.0596 79.0026C78.0831 67.1231 96.1692 64.9214 109.77 72.9482C136.541 53.684 168.132 43.0887 200.248 41.3458C242.863 39.0524 286.431 52.3997 320.79 81.8923ZM122.416 86.2496C128.285 97.7623 126.71 111.981 117.309 122.118C107.861 132.254 93.3059 135.327 80.7554 131.016C66.3915 155.234 60.0924 182.525 61.6194 209.403C63.7191 245.775 80.3259 281.414 110.819 307.604C141.313 333.794 180.014 345.674 217.857 343.61C255.699 341.592 292.778 325.63 320.027 296.321C347.275 267.012 359.635 229.814 357.488 193.441C355.388 157.068 338.781 121.43 308.288 95.2396C277.794 69.0495 239.093 57.1699 201.25 59.2339C173.381 60.7475 145.846 69.8292 122.416 86.2496Z" fill="#EC4A42"/>
        <path d="M419.144 197.846C419.622 223.118 415.136 248.024 406.164 271.325C397.097 294.855 383.545 316.733 365.888 335.676C362.452 339.346 356.583 339.667 352.717 336.364C348.9 333.062 348.566 327.42 352.001 323.705C368.131 306.367 380.538 286.415 388.746 265.041C396.907 243.804 401.011 221.146 400.581 198.121C400.39 195.736 401.154 193.305 402.919 191.378C406.355 187.709 412.225 187.388 416.09 190.69C418.238 192.617 419.288 195.277 419.144 197.846Z" fill="#48C6E4"/>
        <path d="M22.7722 292.697C8.88549 266.415 1.2979 237.886 0.152606 209.173C-0.99269 180.277 4.3043 151.105 16.1868 123.814C16.5685 122.759 17.1889 121.796 18.0001 120.879C21.436 117.163 27.3057 116.888 31.171 120.191C34.3206 122.897 35.1319 127.162 33.4139 130.694C22.5813 155.6 17.7138 182.203 18.7637 208.531C19.8135 234.721 26.6853 260.727 39.3313 284.624C41.5264 287.927 41.2878 292.376 38.4246 295.449C34.9887 299.164 29.119 299.439 25.2537 296.137C24.1084 295.174 23.2971 293.981 22.7722 292.697Z" fill="#48C6E4"/>
        <path fill-rule="evenodd" clip-rule="evenodd" d="M349.282 51.2537C353.099 54.5561 353.433 60.1977 349.998 63.913C346.562 67.5823 340.692 67.9034 336.827 64.601C303.708 36.1634 262.526 20.5227 220.579 18.2293C178.776 15.8901 136.209 26.7606 99.9889 51.1619C96.5053 53.8681 91.3992 53.8222 87.9633 50.8409C84.1457 47.5384 83.8116 41.8968 87.2475 38.1815C87.9156 37.4935 88.6314 36.8973 89.3949 36.4386C129.146 9.69806 175.865 -2.22739 221.677 0.341168C267.727 2.90973 312.919 20.0182 349.282 51.2537Z" fill="#48C6E4"/>
        <path fill-rule="evenodd" clip-rule="evenodd" d="M69.8735 351.635C66.0558 348.333 65.7218 342.691 69.1577 338.976C72.5935 335.307 78.4632 334.986 82.3286 338.288C110.913 362.827 145.702 378.009 182.017 383.1C218.142 388.146 255.793 383.284 290.343 367.781C293.731 365.992 298.026 366.313 301.08 368.927C304.945 372.23 305.232 377.871 301.796 381.587C300.746 382.687 299.505 383.513 298.169 383.972C260.279 400.942 219.001 406.309 179.345 400.759C139.45 395.209 101.226 378.559 69.8735 351.635Z" fill="#EC4A42"/>
    </symbol>


    <symbol id="show-more" viewBox="0 0 27 25" fill="none" xmlns="http://www.w3.org/2000/svg">
        <path d="M21.8661 10.2374C21.2871 7.9975 19.9494 6.0276 18.0809 4.66339C16.2123 3.29918 13.9286 2.62507 11.6187 2.75591C9.30889 2.88675 7.11586 3.81446 5.41333 5.38095C3.7108 6.94745 2.6041 9.05581 2.2818 11.3468C1.9595 13.6378 2.44154 15.9697 3.64579 17.9451C4.85003 19.9205 6.70198 21.4173 8.88607 22.1803C11.0702 22.9434 13.4513 22.9255 15.6237 22.1298C17.7961 21.3341 19.6254 19.8097 20.7999 17.8165L18.349 16.3724C17.5086 17.7986 16.1997 18.8893 14.6453 19.4587C13.0909 20.0281 11.3871 20.0408 9.82431 19.4948C8.26152 18.9488 6.9364 17.8779 6.07472 16.4644C5.21304 15.0509 4.86813 13.3824 5.09874 11.7431C5.32936 10.1038 6.12124 8.59522 7.33945 7.47434C8.55767 6.35347 10.1268 5.68967 11.7796 5.59604C13.4324 5.50242 15.0665 5.98477 16.4035 6.96091C17.7405 7.93704 18.6977 9.34657 19.1119 10.9493L21.8661 10.2374Z" fill="#EC4A42"/>
        <path d="M14.1328 8.8418L20.9279 10.7979L22.884 4.0028" stroke="#EC4A42" stroke-width="2"/>
    </symbol>


    <symbol id="thanks" viewBox="0 0 113 113" fill="none" xmlns="http://www.w3.org/2000/svg">
        <circle cx="56.5" cy="56.5" r="56.5" fill="#48C6E4"/>
        <path d="M31.6836 56L49.6839 74L85.9997 38" stroke="white" stroke-width="7"/>
    </symbol>


    <symbol id="resume" viewBox="0 0 36 36" fill="none" xmlns="http://www.w3.org/2000/svg"> 
    <path d="M8.12268 17.1742L18.0947 7.20218C20.9677 4.32913 25.626 4.32913 28.4991 7.20218C29.8937 8.59687 30.605 10.41 30.6469 12.237C30.6887 14.1756 29.9774 16.1282 28.4921 17.6135L15.9608 30.1448C14.9497 31.1559 13.6108 31.6441 12.2858 31.6162C11.0376 31.5813 9.7963 31.0932 8.84791 30.1448C6.88141 28.1783 6.88141 24.9984 8.84791 23.0319L21.428 10.4518C22.4112 9.46855 24.0012 9.46855 24.9844 10.4518C25.4586 10.926 25.7027 11.5466 25.7167 12.1742C25.7376 12.8367 25.4865 13.5062 24.9775 14.0152L15.2774 23.7153" fill="white"/>
<path d="M8.12268 17.1742L18.0947 7.20218C20.9677 4.32913 25.626 4.32913 28.4991 7.20218C29.8937 8.59687 30.605 10.41 30.6469 12.237C30.6887 14.1756 29.9774 16.1282 28.4921 17.6135L15.9608 30.1448C14.9497 31.1559 13.6108 31.6441 12.2858 31.6162C11.0376 31.5813 9.7963 31.0932 8.84791 30.1448C6.88141 28.1783 6.88141 24.9984 8.84791 23.0319L21.428 10.4518C22.4112 9.46855 24.0012 9.46855 24.9844 10.4518C25.4586 10.926 25.7027 11.5466 25.7167 12.1742C25.7376 12.8367 25.4865 13.5062 24.9775 14.0152L15.2774 23.7153" stroke="black" stroke-width="2" stroke-miterlimit="10" stroke-linecap="round"/>
    </symbol>

</svg>