<svg width="420" height="403" fill="none" xmlns="http://www.w3.org/2000/svg"><path d="M278.123 127.76c21.188 18.209 32.689 42.931 34.12 68.158 1.48 25.273-7.062 51.05-26.008 71.415-18.945 20.365-44.666 31.419-70.912 32.795-26.295 1.422-53.114-6.788-74.302-24.997-21.188-18.21-32.688-42.932-34.12-68.159-1.479-25.273 7.111-51.05 26.008-71.415 18.897-20.365 44.667-31.419 70.913-32.795 26.294-1.422 53.113 6.834 74.301 24.998z" fill="#48C6E4"/><path d="M320.79 81.892c34.359 29.493 53.018 69.627 55.404 110.586 2.386 40.959-11.501 82.836-42.185 115.814-30.684 33.025-72.44 50.959-115.055 53.252-42.614 2.293-86.183-11.054-120.494-40.547-34.407-29.492-53.066-69.626-55.452-110.585-1.813-30.869 5.631-62.242 22.572-89.946-9.83-12.108-9.544-29.63 1.48-41.463 11.023-11.88 29.11-14.082 42.71-6.055 26.771-19.264 58.362-29.86 90.478-31.602 42.615-2.294 86.183 11.054 120.542 40.546zM122.416 86.25c5.869 11.512 4.294 25.731-5.107 35.868-9.448 10.136-24.003 13.209-36.554 8.898a138.06 138.06 0 00-19.136 78.387c2.1 36.372 18.707 72.011 49.2 98.201 30.494 26.19 69.195 38.07 107.038 36.006 37.842-2.018 74.921-17.98 102.17-47.289 27.248-29.309 39.608-66.507 37.461-102.88-2.1-36.373-18.707-72.011-49.2-98.201-30.494-26.19-69.195-38.07-107.038-36.006-27.869 1.514-55.404 10.595-78.834 27.016z" fill="#EC4A42"/><path d="M419.144 197.846c.478 25.272-4.008 50.178-12.98 73.479a199.556 199.556 0 01-40.276 64.351c-3.436 3.67-9.305 3.991-13.171.688-3.817-3.302-4.151-8.944-.716-12.659 16.13-17.338 28.537-37.29 36.745-58.664 8.161-21.237 12.265-43.895 11.835-66.92-.191-2.385.573-4.816 2.338-6.743 3.436-3.669 9.306-3.99 13.171-.688 2.148 1.927 3.198 4.587 3.054 7.156zM22.772 292.697C8.885 266.415 1.298 237.886.152 209.173a194.385 194.385 0 0116.035-85.359c.381-1.055 1.002-2.018 1.813-2.935 3.436-3.716 9.306-3.991 13.171-.688 3.15 2.706 3.96 6.971 2.243 10.503-10.833 24.906-15.7 51.509-14.65 77.837 1.05 26.19 7.921 52.196 20.567 76.093a8.721 8.721 0 01-.906 10.825c-3.436 3.715-9.306 3.99-13.171.688a8.806 8.806 0 01-2.482-3.44z" fill="#48C6E4"/><path fill-rule="evenodd" clip-rule="evenodd" d="M349.282 51.254c3.817 3.302 4.151 8.944.716 12.659-3.436 3.67-9.306 3.99-13.171.688-33.119-28.438-74.301-44.078-116.248-46.372-41.803-2.339-84.37 8.532-120.59 32.933-3.484 2.706-8.59 2.66-12.026-.321-3.817-3.303-4.151-8.944-.715-12.66.668-.688 1.383-1.284 2.147-1.742C129.146 9.699 175.865-2.227 221.677.34c46.05 2.569 91.242 19.677 127.605 50.913z" fill="#48C6E4"/><path fill-rule="evenodd" clip-rule="evenodd" d="M69.874 351.635c-3.818-3.302-4.152-8.944-.716-12.659 3.436-3.669 9.305-3.99 13.17-.688 28.585 24.539 63.374 39.721 99.689 44.812 36.125 5.046 73.776.184 108.326-15.319 3.388-1.789 7.683-1.468 10.737 1.146 3.865 3.303 4.152 8.944.716 12.66-1.05 1.1-2.291 1.926-3.627 2.385-37.89 16.97-79.168 22.337-118.824 16.787-39.895-5.55-78.119-22.2-109.471-49.124z" fill="#EC4A42"/></svg>