<svg width="420" height="403" viewBox="0 0 420 403" fill="none" xmlns="http://www.w3.org/2000/svg">
<path d="M278.123 127.76C299.311 145.969 310.812 170.691 312.243 195.918C313.723 221.191 305.181 246.968 286.235 267.333C267.29 287.698 241.569 298.752 215.323 300.128C189.028 301.55 162.209 293.34 141.021 275.131C119.833 256.921 108.333 232.199 106.901 206.972C105.422 181.699 114.012 155.922 132.909 135.557C151.806 115.192 177.576 104.138 203.822 102.762C230.116 101.34 256.935 109.596 278.123 127.76Z" fill="#48C6E4"/>
<path d="M320.79 81.8923C355.149 111.385 373.808 151.519 376.194 192.478C378.58 233.437 364.693 275.314 334.009 308.292C303.325 341.317 261.569 359.251 218.954 361.544C176.34 363.837 132.771 350.49 98.4598 320.997C64.0532 291.505 45.3944 251.371 43.0084 210.412C41.195 179.543 48.6394 148.17 65.5802 120.466C55.7498 108.358 56.0361 90.8363 67.0596 79.0026C78.0831 67.1231 96.1692 64.9214 109.77 72.9482C136.541 53.684 168.132 43.0887 200.248 41.3458C242.863 39.0524 286.431 52.3997 320.79 81.8923ZM122.416 86.2496C128.285 97.7623 126.71 111.981 117.309 122.118C107.861 132.254 93.3059 135.327 80.7554 131.016C66.3915 155.234 60.0924 182.525 61.6194 209.403C63.7191 245.775 80.3259 281.414 110.819 307.604C141.313 333.794 180.014 345.674 217.857 343.61C255.699 341.592 292.778 325.63 320.027 296.321C347.275 267.012 359.635 229.814 357.488 193.441C355.388 157.068 338.781 121.43 308.288 95.2396C277.794 69.0495 239.093 57.1699 201.25 59.2339C173.381 60.7475 145.846 69.8292 122.416 86.2496Z" fill="#EC4A42"/>
<path d="M419.144 197.846C419.622 223.118 415.136 248.024 406.164 271.325C397.097 294.855 383.545 316.733 365.888 335.676C362.452 339.346 356.583 339.667 352.717 336.364C348.9 333.062 348.566 327.42 352.001 323.705C368.131 306.367 380.538 286.415 388.746 265.041C396.907 243.804 401.011 221.146 400.581 198.121C400.39 195.736 401.154 193.305 402.919 191.378C406.355 187.709 412.225 187.388 416.09 190.69C418.238 192.617 419.288 195.277 419.144 197.846Z" fill="#48C6E4"/>
<path d="M22.7722 292.697C8.88549 266.415 1.2979 237.886 0.152606 209.173C-0.99269 180.277 4.3043 151.105 16.1868 123.814C16.5685 122.759 17.1889 121.796 18.0001 120.879C21.436 117.163 27.3057 116.888 31.171 120.191C34.3206 122.897 35.1319 127.162 33.4139 130.694C22.5813 155.6 17.7138 182.203 18.7637 208.531C19.8135 234.721 26.6853 260.727 39.3313 284.624C41.5264 287.927 41.2878 292.376 38.4246 295.449C34.9887 299.164 29.119 299.439 25.2537 296.137C24.1084 295.174 23.2971 293.981 22.7722 292.697Z" fill="#48C6E4"/>
<path fill-rule="evenodd" clip-rule="evenodd" d="M349.282 51.2537C353.099 54.5561 353.433 60.1977 349.998 63.913C346.562 67.5823 340.692 67.9034 336.827 64.601C303.708 36.1634 262.526 20.5227 220.579 18.2293C178.776 15.8901 136.209 26.7606 99.9889 51.1619C96.5053 53.8681 91.3992 53.8222 87.9633 50.8409C84.1457 47.5384 83.8116 41.8968 87.2475 38.1815C87.9156 37.4935 88.6314 36.8973 89.3949 36.4386C129.146 9.69806 175.865 -2.22739 221.677 0.341168C267.727 2.90973 312.919 20.0182 349.282 51.2537Z" fill="#48C6E4"/>
<path fill-rule="evenodd" clip-rule="evenodd" d="M69.8735 351.635C66.0558 348.333 65.7218 342.691 69.1577 338.976C72.5935 335.307 78.4632 334.986 82.3286 338.288C110.913 362.827 145.702 378.009 182.017 383.1C218.142 388.146 255.793 383.284 290.343 367.781C293.731 365.992 298.026 366.313 301.08 368.927C304.945 372.23 305.232 377.871 301.796 381.587C300.746 382.687 299.505 383.513 298.169 383.972C260.279 400.942 219.001 406.309 179.345 400.759C139.45 395.209 101.226 378.559 69.8735 351.635Z" fill="#EC4A42"/>
</svg>
